<svg xmlns="http://www.w3.org/2000/svg" width="100" height="100" viewBox="0 0 100 100">
    <g fill="none" fill-rule="evenodd">
        <path fill="#620A08" d="M85 90c-2.757 0-5-2.243-5-5s2.243-5 5-5 5 2.243 5 5-2.243 5-5 5m0-13.334c-4.595 0-8.333 3.739-8.333 8.334s3.738 8.333 8.333 8.333c4.595 0 8.333-3.738 8.333-8.333 0-4.595-3.738-8.334-8.333-8.334"/>
        <path fill="#620A08" d="M85 96.667c-6.432 0-11.667-5.234-11.667-11.667S78.568 73.333 85 73.333c6.432 0 11.666 5.234 11.666 11.667S91.432 96.667 85 96.667m11.666-21.075V20a3.337 3.337 0 0 0-3.333-3.333H76.667A3.337 3.337 0 0 0 73.333 20v45c0 .92.745 1.667 1.667 1.667h3.333a1.666 1.666 0 1 0 0-3.334h-1.666V60h1.666a1.666 1.666 0 1 0 0-3.333h-1.666v-3.334h5a1.666 1.666 0 1 0 0-3.333h-5v-3.333h1.666a1.666 1.666 0 1 0 0-3.334h-1.666V40h1.666a1.666 1.666 0 1 0 0-3.333h-1.666v-3.334h1.666a1.666 1.666 0 1 0 0-3.333h-1.666v-3.333h5a1.666 1.666 0 1 0 0-3.333h-5V20h16.666v52.537A14.898 14.898 0 0 0 85 70c-8.272 0-15 6.73-15 15 0 3.082.937 5.948 2.535 8.333H26.667V76.667H30v5a1.667 1.667 0 0 0 3.333 0v-5h3.334v1.666a1.667 1.667 0 0 0 3.333 0v-1.666h3.333v1.666a1.667 1.667 0 0 0 3.333 0v-1.666H50v1.666a1.667 1.667 0 0 0 3.333 0v-1.666h3.334v5a1.666 1.666 0 1 0 3.333 0v-5h3.333v1.666a1.666 1.666 0 1 0 3.333 0V75c0-.92-.745-1.667-1.666-1.667H26.667c-1.932 0-3.334 1.402-3.334 3.334v16.666c0 1.932 1.402 3.334 3.334 3.334h48.925A14.927 14.927 0 0 0 85 100c8.272 0 15-6.73 15-15 0-3.562-1.253-6.832-3.334-9.408"/>
        <path fill="#FC0" d="M16.667 82.567A9.95 9.95 0 0 0 10 80a9.95 9.95 0 0 0-6.667 2.567V10A6.673 6.673 0 0 1 10 3.333 6.673 6.673 0 0 1 16.667 10v72.567zm70-70.9c0-.92-.745-1.667-1.667-1.667H20c0-5.515-4.485-10-10-10S0 4.485 0 10v80c0 5.515 4.485 10 10 10h8.333a1.667 1.667 0 0 0 0-3.333H10A6.673 6.673 0 0 1 3.333 90 6.673 6.673 0 0 1 10 83.334 6.673 6.673 0 0 1 16.667 90 1.667 1.667 0 0 0 20 90V13.333h65c.922 0 1.667-.746 1.667-1.666z"/>
        <path fill="#620A08" d="M63.822 22.845a1.663 1.663 0 0 0 2.356 0 1.665 1.665 0 0 0 0-2.357l-3.331-3.331a1.67 1.67 0 0 0-2.36 0l-3.332 3.331a1.665 1.665 0 0 0 0 2.357 1.665 1.665 0 0 0 2.357 0l.488-.488v38.62l-.488-.489a1.665 1.665 0 0 0-2.357 0 1.665 1.665 0 0 0 0 2.357l3.332 3.331c.155.156.338.277.543.362a1.652 1.652 0 0 0 1.274 0c.205-.085.388-.207.543-.362l3.331-3.331a1.665 1.665 0 0 0 0-2.357 1.665 1.665 0 0 0-2.356 0l-.488.488v-38.62l.488.489z"/>
    </g>
</svg>
