<svg xmlns="http://www.w3.org/2000/svg" width="100" height="100" viewBox="0 0 100 100">
    <g fill="none" fill-rule="evenodd">
        <path fill="#620A08" d="M32.172 36.477a1.666 1.666 0 0 0 .61 2.277l9.806 5.661a1.667 1.667 0 0 0 1.667-2.887l-9.807-5.661a1.664 1.664 0 0 0-2.276.61m23.376-3.824a1.667 1.667 0 0 0 1.667-2.888L42.782 21.43a1.666 1.666 0 1 0-1.667 2.888l14.433 8.334zM26.28 54.243a1.667 1.667 0 0 0 1.667-2.887L26.115 50.3a1.666 1.666 0 1 0-1.667 2.887l1.832 1.056zm-15.313 8.965a1.664 1.664 0 0 0 2.277-.61L42.62 11.715a4.971 4.971 0 0 1 3.035-2.33 4.95 4.95 0 0 1 3.793.502l14.435 8.331a4.967 4.967 0 0 1 2.329 3.035c.346 1.292.17 2.639-.564 3.924l-2.088 4.465c-.39.833-.03 1.824.805 2.215a1.668 1.668 0 0 0 2.215-.804l2.022-4.338a8.289 8.289 0 0 0 .831-6.323 8.272 8.272 0 0 0-3.885-5.06L51.115 7a8.261 8.261 0 0 0-6.322-.835 8.277 8.277 0 0 0-5.06 3.883L10.357 60.932a1.667 1.667 0 0 0 .61 2.276m-2.635-9.873h1.666a1.667 1.667 0 0 0 0-3.333H8.332a1.667 1.667 0 0 0 0 3.333m75.001 38.332V75A1.667 1.667 0 0 0 80 75v16.667a1.667 1.667 0 0 0 3.333 0m-16.666 0V75a1.667 1.667 0 0 0-3.334 0v16.667a1.667 1.667 0 0 0 3.334 0m-16.667 0V75a1.667 1.667 0 0 0-3.333 0v16.667a1.667 1.667 0 0 0 3.333 0m-31.667-8.334A1.67 1.67 0 0 1 16.667 85 1.67 1.67 0 0 1 15 83.333a1.67 1.67 0 0 1 1.667-1.666 1.67 1.67 0 0 1 1.666 1.666m-6.666 0c0 2.757 2.243 5 5 5 2.756 0 5-2.243 5-5 0-2.756-2.244-5-5-5-2.757 0-5 2.244-5 5M8.332 20h16.666a1.667 1.667 0 0 0 0-3.333H8.332a1.667 1.667 0 0 0 0 3.333m0 16.667h11.666a1.667 1.667 0 0 0 0-3.334H8.332a1.667 1.667 0 0 0 0 3.334m-6.665 30c.92 0 1.666-.745 1.666-1.667V8.333a4.962 4.962 0 0 1 1.464-3.536A4.965 4.965 0 0 1 8.33 3.333h16.672a4.97 4.97 0 0 1 3.533 1.464A4.97 4.97 0 0 1 30 8.333l.002 5.002a1.666 1.666 0 0 0 3.333-.001l-.002-5a8.28 8.28 0 0 0-2.441-5.894A8.28 8.28 0 0 0 25.002 0H8.329a8.277 8.277 0 0 0-5.89 2.441A8.274 8.274 0 0 0 0 8.333V65c0 .922.747 1.667 1.667 1.667m90 0H8.333C3.738 66.667 0 70.405 0 75v16.667C0 96.262 3.738 100 8.333 100h23.334c.92 0 1.666-.747 1.666-1.667V75A1.667 1.667 0 0 0 30 75v21.667H8.333c-2.756 0-5-2.244-5-5V75c0-2.757 2.244-5 5-5h83.334c2.756 0 5 2.243 5 5v16.667c0 2.756-2.244 5-5 5H38.333a1.667 1.667 0 0 0 0 3.333h53.334c4.595 0 8.333-3.738 8.333-8.333V75c0-4.595-3.738-8.333-8.333-8.333"/>
        <path fill="#FC0" d="M53.523 50.507a1.665 1.665 0 0 1 2.277.61l5.668 9.815a1.667 1.667 0 0 1-2.888 1.666l-5.667-9.815a1.667 1.667 0 0 1 .61-2.276zM22.582 62.598a1.666 1.666 0 0 1 .61-2.276L73.286 31.4a8.277 8.277 0 0 1 6.322-.833 8.278 8.278 0 0 1 5.06 3.883l8.334 14.434a8.279 8.279 0 0 1 .833 6.323 8.276 8.276 0 0 1-3.882 5.06l-5.673 3.276a1.668 1.668 0 0 1-1.667-2.887l5.674-3.276a4.963 4.963 0 0 0 2.328-3.035 4.965 4.965 0 0 0-.5-3.794L81.78 36.117a4.968 4.968 0 0 0-3.033-2.33 4.974 4.974 0 0 0-3.794.5L24.858 63.207a1.667 1.667 0 0 1-2.276-.61zm47.653-19.815l8.333 14.434a1.668 1.668 0 0 1-2.888 1.666L67.347 44.45a1.667 1.667 0 1 1 2.888-1.667zM38.883 58.477a1.664 1.664 0 0 1 2.275.61l1.065 1.847a1.665 1.665 0 0 1-1.441 2.498 1.664 1.664 0 0 1-1.445-.833l-1.065-1.846a1.667 1.667 0 0 1 .611-2.276z"/>
    </g>
</svg>
