<svg xmlns="http://www.w3.org/2000/svg" width="100" height="100" viewBox="0 0 100 100">
    <g fill="none" fill-rule="evenodd">
        <path fill="#620A08" d="M84.32 61.572a1.668 1.668 0 1 1 2.88 1.685L68.073 95.844C66.533 98.508 63.725 100 60.84 100a8.287 8.287 0 0 1-4.159-1.115l-3.8-2.458a1.667 1.667 0 0 1 1.815-2.798l3.728 2.413c2.318 1.337 5.384.514 6.766-1.875L84.32 61.572zM64.95 0h26.706C96.256 0 100 3.74 100 8.336V35.01c0 5.158-1.642 9-5.496 12.848l-49.57 49.58a8.3 8.3 0 0 1-5.902 2.443 8.294 8.294 0 0 1-5.9-2.441L2.445 66.79A8.272 8.272 0 0 1 0 60.895c0-2.226.868-4.318 2.445-5.893l43.356-43.246c2.798 0 7.97.706 12.372 2.248 7.72 2.704 12.85 4.433 12.718 5.943a6.65 6.65 0 0 0-.935 3.393c0 3.678 2.995 6.669 6.676 6.669 3.682 0 6.677-2.991 6.677-6.669 0-3.678-2.994-6.669-6.677-6.669a1.668 1.668 0 1 1 0-3.334c5.524 0 10.015 4.487 10.015 10.003 0 5.517-4.491 10.003-10.015 10.003-5.523 0-10.014-4.486-10.014-10.003 0-1.672.44-3.301 1.227-4.753-2.388-3.256-13.4-5.913-18.237-5.913L4.805 57.36a4.958 4.958 0 0 0-1.467 3.535c0 1.337.521 2.592 1.467 3.538l30.687 30.65c1.888 1.888 5.188 1.89 7.08 0l49.57-49.581c3.253-3.248 4.52-6.188 4.52-10.491V8.336a5.01 5.01 0 0 0-5.007-5.002H64.949c-4.307 0-7.252 1.266-10.504 4.513a1.669 1.669 0 0 1-2.36-2.357C55.937 1.642 59.785 0 64.949 0zm-19.99 53.624c3.136 2.726 3.47 7.496.743 10.633-2.3 2.647-6.057 3.297-9.06 1.797l-2.116 2.435a1.879 1.879 0 0 1-2.836-2.465l1.961-2.256-2.852-2.48a1.879 1.879 0 0 1 2.465-2.836l4.27 3.712a3.784 3.784 0 0 0 5.332-.372 3.784 3.784 0 0 0-.373-5.332c-3.136-2.727-3.47-7.496-.743-10.633 2.301-2.647 6.057-3.297 9.06-1.797l2.116-2.435a1.879 1.879 0 0 1 2.836 2.465l-1.961 2.256 2.852 2.48a1.879 1.879 0 0 1-2.465 2.836l-4.27-3.713a3.784 3.784 0 0 0-5.332.373 3.784 3.784 0 0 0 .373 5.332z"/>
        <path fill="#FC0" d="M49.608 12.689c.688.175 1.379.35 2.093.542 6.792 1.82 12.15 3.699 16.144 5.378 1.456.734 1.893.868 3.046 1.362 2.89 1.383 4.698 2.55 5.413 3.295-.306.086-.778.183-1.49.245a1.669 1.669 0 0 0 .145 3.333c1.175-.098 4.298-.374 4.899-2.612 1.644-6.14-22.447-12.928-27.292-14.226C45.153 8.02 38.033 6.66 32.518 6.18c-6.782-.594-10.082.179-10.7 2.499-.3 1.113-1.09 4.07 12.44 9.405a1.67 1.67 0 0 0 1.228-3.104c-6.538-2.579-9.247-4.468-10.119-5.358 2.062-.604 9.1-.429 20.434 2.148"/>
    </g>
</svg>
