<svg xmlns="http://www.w3.org/2000/svg" width="93" height="100" viewBox="0 0 93 100">
    <g fill="none" fill-rule="evenodd">
        <path fill="#620A08" d="M56.25 34.896c0-.863.737-1.563 1.65-1.563h16.492c.912 0 1.65.7 1.65 1.563 0 .862-.738 1.562-1.65 1.562H57.9c-.912 0-1.649-.7-1.649-1.562zm10.417 10.416c0-.862.756-1.562 1.692-1.562h10.157c.936 0 1.692.7 1.692 1.563 0 .862-.756 1.562-1.692 1.562H68.359c-.936 0-1.692-.7-1.692-1.563zm-2.604-18.229h-3.125a1.562 1.562 0 1 1 0-3.125h3.125a1.562 1.562 0 1 1 0 3.125zM44.358 43.75H60.85c.912 0 1.649.7 1.649 1.563 0 .862-.737 1.562-1.65 1.562H44.359c-.913 0-1.65-.7-1.65-1.563 0-.862.737-1.562 1.65-1.562zm8.156 46.675c.914 0 1.653.745 1.653 1.662 0 .918-.739 1.663-1.653 1.663H21.121c-4.556 0-8.262-3.73-8.262-8.313V10.9a4.996 4.996 0 0 0-3.305 4.704c0 .918-.738 1.663-1.652 1.663a1.657 1.657 0 0 1-1.652-1.663c0-4.584 3.706-8.313 8.262-8.313.913 0 1.652.745 1.652 1.662v76.483c0 2.75 2.224 4.988 4.957 4.988h31.393zM27.67 36.458c-.9 0-1.627-.7-1.627-1.562 0-.863.727-1.563 1.627-1.563h22.787c.9 0 1.627.7 1.627 1.563 0 .862-.727 1.562-1.627 1.562H27.669zm.109-9.375c-.96 0-1.736-.7-1.736-1.562 0-.863.776-1.563 1.736-1.563h6.944c.96 0 1.736.7 1.736 1.563 0 .862-.776 1.562-1.736 1.562h-6.944zm26.806-3.125c.921 0 1.666.7 1.666 1.563 0 .862-.745 1.562-1.666 1.562H41.25c-.922 0-1.667-.7-1.667-1.562 0-.863.745-1.563 1.667-1.563h13.334zM77.787.04c8.214 0 14.896 6.694 14.895 14.924V84.61a8.147 8.147 0 0 1-1.133 4.119 1.652 1.652 0 0 1-2.266.588 1.661 1.661 0 0 1-.587-2.27 4.832 4.832 0 0 0 .676-2.437V14.964c0-6.4-5.198-11.608-11.585-11.608H14.895c-6.381 0-11.573 5.197-11.585 11.588a11.665 11.665 0 0 0 5.794 10.039 1.658 1.658 0 0 1 .603 2.265 1.655 1.655 0 0 1-2.261.604A14.989 14.989 0 0 1 0 14.984v-.078C.031 6.704 6.701.04 14.895.04h62.892zM27.734 46.875c-.936 0-1.692-.7-1.692-1.563 0-.862.756-1.562 1.692-1.562h10.157c.936 0 1.692.7 1.692 1.563 0 .862-.756 1.562-1.692 1.562H27.734zm-.055 9.375c-.906 0-1.637-.7-1.637-1.563 0-.862.731-1.562 1.637-1.562H47.32c.906 0 1.637.7 1.637 1.562 0 .863-.731 1.563-1.637 1.563H27.68zm.22 21.37c-2.146-4.405-2.446-8.473-.828-11.163 1.132-1.88 3.095-2.915 5.528-2.915 2.133 0 3.306 1.073 3.914 1.975 1.394 2.063 1.238 5.373.704 8.245 1.355-.835 1.914-.595 2.347-.412.637.27 1.056.868 1.139 1.595 1.078-.777 2.258-1.403 3.262-1.403.84 0 1.562.395 1.976 1.083.391.65.424 1.457.292 2.25h4.227c.898 0 1.623.747 1.623 1.667s-.725 1.666-1.623 1.666h-6.495c-.562 0-1.083-.3-1.38-.79a1.711 1.711 0 0 1-.075-1.62c.02-.038.039-.078.058-.12a20.453 20.453 0 0 0-2.327 2.042 1.59 1.59 0 0 1-1.77.36 1.664 1.664 0 0 1-1.001-1.538v-.815a39.316 39.316 0 0 0-2.1 1.993 1.598 1.598 0 0 1-2.026.223 1.691 1.691 0 0 1-.643-1.986c1.203-3.3 2.352-8.752 1.143-10.542-.182-.267-.471-.54-1.246-.54-1.302 0-2.23.448-2.763 1.333-1 1.662-.64 4.622.967 7.922.403.823.077 1.825-.725 2.237a1.605 1.605 0 0 1-2.178-.747zm45.018-22.933c0 .863-.737 1.563-1.65 1.563H54.775c-.912 0-1.649-.7-1.649-1.563 0-.862.737-1.562 1.65-1.562h16.493c.912 0 1.649.7 1.649 1.562z"/>
        <path fill="#FC0" d="M72.396 83.16a6.604 6.604 0 0 1-6.597-6.597 6.604 6.604 0 0 1 6.597-6.598 6.604 6.604 0 0 1 6.597 6.597 6.604 6.604 0 0 1-6.597 6.598m9.896-6.597c0 5.457-4.439 9.895-9.896 9.895-5.458 0-9.896-4.438-9.896-9.895 0-5.458 4.438-9.896 9.896-9.896 5.457 0 9.896 4.438 9.896 9.895zM68.987 88.103c.77.47 1.033 1.51.59 2.322l-4.761 8.724c-.28.51-.79.831-1.343.85h-.05a1.584 1.584 0 0 1-1.34-.763l-1.538-2.463-2.784-.177a1.597 1.597 0 0 1-1.32-.891 1.79 1.79 0 0 1 .023-1.655l4.815-8.825c.446-.814 1.429-1.093 2.197-.622.768.47 1.031 1.51.588 2.322l-3.517 6.443.993.063c.504.03.966.312 1.243.76l.55.877 3.459-6.343c.445-.812 1.428-1.091 2.195-.622zm15.208-2.693l5.065 8.682a1.68 1.68 0 0 1 .024 1.644c-.28.515-.809.85-1.4.884l-2.953.177-1.63 2.444a1.715 1.715 0 0 1-1.423.758h-.053a1.716 1.716 0 0 1-1.425-.844l-5.032-8.63a1.68 1.68 0 0 1 .624-2.305 1.718 1.718 0 0 1 2.33.618l3.651 6.265.58-.871a1.715 1.715 0 0 1 1.321-.755l1.054-.062-3.688-6.317c-.47-.807-.19-1.84.626-2.306a1.713 1.713 0 0 1 2.329.618z"/>
    </g>
</svg>
