<svg xmlns="http://www.w3.org/2000/svg" width="22" height="21" viewBox="0 0 22 21">
    <path fill="#FFF" fill-rule="evenodd" d="M14.292 10.73l5.963 5.963c1.016 1.016 1.067 2.628.112 3.583-.955.955-2.567.904-3.583-.112l-5.963-5.963-5.963 5.963c-1.016 1.016-2.628 1.067-3.583.112-.954-.955-.904-2.567.112-3.583L7.35 10.73 1.387 4.767C.371 3.751.321 2.14 1.275 1.184 2.23.23 3.842.28 4.858 1.296l5.963 5.963 5.963-5.963C17.8.28 19.412.23 20.367 1.184c.955.955.904 2.567-.112 3.583l-5.963 5.963z"/>
</svg>
