<svg xmlns="http://www.w3.org/2000/svg" width="28" height="21" viewBox="0 0 28 21">
    <path fill="#FC0" fill-rule="evenodd" d="M3.567 4.776a.833.833 0 0 1-.099-1.192.867.867 0 0 1 1.213-.097L14 11.275l9.326-7.78a.873.873 0 0 1 1.213.096.84.84 0 0 1-.099 1.192l-6.656 5.555 6.684 6.19a.83.83 0 0 1 .036 1.191.858.858 0 0 1-.624.27.877.877 0 0 1-.589-.228l-6.832-6.32-1.905 1.592a.88.88 0 0 1-.554.2.88.88 0 0 1-.554-.2l-1.905-1.592-6.832 6.32a.877.877 0 0 1-.589.227.846.846 0 0 1-.624-.269.837.837 0 0 1 .036-1.192l6.684-6.189-6.65-5.562zM24.51 21C26.43 21 28 19.463 28 17.568V3.432C28 1.544 26.437 0 24.51 0H3.49C1.57 0 0 1.537 0 3.432v14.136C0 19.456 1.563 21 3.49 21h21.02z"/>
</svg>
