<svg xmlns="http://www.w3.org/2000/svg" width="27" height="24" viewBox="0 0 27 24">
    <path fill="#FFF" fill-rule="evenodd" d="M24.387 0C25.824 0 27 1.105 27 2.455s-1.176 2.454-2.613 2.454H2.613C1.176 4.91 0 3.805 0 2.455S1.176 0 2.613 0h21.774zm0 9.273c1.437 0 2.613 1.104 2.613 2.454s-1.176 2.455-2.613 2.455H2.613C1.176 14.182 0 13.077 0 11.727s1.176-2.454 2.613-2.454h21.774zm0 9.818c1.437 0 2.613 1.104 2.613 2.454S25.824 24 24.387 24H2.613C1.176 24 0 22.895 0 21.545s1.176-2.454 2.613-2.454h21.774z"/>
</svg>
