<svg xmlns="http://www.w3.org/2000/svg" width="27" height="27" viewBox="0 0 27 27">
    <path fill="#FC0" fill-rule="evenodd" d="M.024 5.358c.08-.94.45-1.752 1.148-2.446L3.39.705c.981-.94 2.217-.94 3.155 0 .618.572 1.192 1.187 1.803 1.795l1.76 1.752c1.026 1.02 1.026 2.206 0 3.227-.74.737-1.432 1.469-2.217 2.163-.203.203-.203.326-.123.572.494 1.186 1.192 2.207 1.97 3.184 1.6 1.96 3.403 3.676 5.533 5.022.451.282.982.491 1.433.774.247.123.407.08.617-.123l2.217-2.206c.982-.978 2.217-.978 3.156 0l3.57 3.552c.981.978.981 2.207 0 3.227-.655.695-1.396 1.303-2.007 2.04-.945 1.021-2.094 1.39-3.446 1.304-1.884-.123-3.65-.775-5.373-1.592-3.81-1.838-7.096-4.407-9.838-7.67-2.007-2.41-3.693-4.98-4.798-7.96C.271 8.338-.1 6.87.024 5.357z"/>
</svg>
