<svg xmlns="http://www.w3.org/2000/svg" width="80" height="80" viewBox="0 0 80 80">
    <path fill="#620A08" fill-rule="evenodd" d="M57.333 77.333h20V48h-20v29.333zm-32 0h29.334V48H25.333v29.333zm-22.666-20h20V48h-20v9.333zm0 20h20V60h-20v17.333zm76-32H1.333c-.737 0-1.333.598-1.333 1.334v32C0 79.403.596 80 1.333 80h77.334c.737 0 1.333-.597 1.333-1.333v-32c0-.736-.596-1.334-1.333-1.334zM2.667 16h18.666V2.667H2.667V16zm20-16H1.333C.596 0 0 .597 0 1.333v16c0 .736.596 1.334 1.333 1.334h21.334c.737 0 1.333-.598 1.333-1.334v-16C24 .597 23.404 0 22.667 0zm36 16h18.666V2.667H58.667V16zm20-16H57.333C56.596 0 56 .597 56 1.333v16c0 .736.596 1.334 1.333 1.334h21.334c.737 0 1.333-.598 1.333-1.334v-16C80 .597 79.404 0 78.667 0zM9.333 13.333h5.334v-2.666H9.333v2.666zm56 0h5.334v-2.666h-5.334v2.666zM36 22.667h2.667V20H36v2.667zm5.333 0H44V20h-2.667v2.667zM32 72h16V58.667H32V72zm17.333-16H30.667c-.738 0-1.334.597-1.334 1.333v16c0 .736.596 1.334 1.334 1.334h18.666c.738 0 1.334-.598 1.334-1.334v-16c0-.736-.596-1.333-1.334-1.333zM28 53.333h2.667v-2.666H28v2.666zm5.333 0H36v-2.666h-2.667v2.666zm5.334 0h2.666v-2.666h-2.666v2.666zm5.333 0h2.667v-2.666H44v2.666zm5.333 0H52v-2.666h-2.667v2.666zm16 0h5.334v-2.666h-5.334v2.666zm-56 0H16v-2.666H9.333v2.666zm0 12H16v-2.666H9.333v2.666zM34.667 64h10.666v-2.667H34.667V64zM76 38.667a1.335 1.335 0 0 1-1.333-1.334C74.667 36.6 75.264 36 76 36s1.333.599 1.333 1.333c0 .735-.597 1.334-1.333 1.334zm-4-5.088v-4.246h2.667v4.246a3.985 3.985 0 0 0-1.334.794A3.963 3.963 0 0 0 72 33.58zm-1.333 5.088a1.335 1.335 0 0 1-1.334-1.334 1.335 1.335 0 0 1 2.667 0c0 .735-.597 1.334-1.333 1.334zm-4-5.088v-4.246h2.666v4.246a3.985 3.985 0 0 0-1.333.794 3.965 3.965 0 0 0-1.333-.794zm-1.334 5.088A1.335 1.335 0 0 1 64 37.333C64 36.6 64.597 36 65.333 36s1.334.599 1.334 1.333c0 .735-.598 1.334-1.334 1.334zM80 29.333v-2.666H61.333v2.666H64v4.246c-1.548.552-2.667 2.018-2.667 3.754 0 2.206 1.795 4 4 4A3.974 3.974 0 0 0 68 40.293c.71.64 1.639 1.04 2.667 1.04a3.974 3.974 0 0 0 2.666-1.04c.71.64 1.639 1.04 2.667 1.04 2.205 0 4-1.794 4-4 0-1.736-1.119-3.202-2.667-3.754v-4.246H80zM14.667 39.448l-2.115-2.115 2.115-2.114 2.114 2.114-2.114 2.115zM8 32.781v-3.448h5.333v3.448l-2.666 2.667L8 32.781zm-1.333 6.667l-2.115-2.115 2.115-2.114 2.114 2.114-2.114 2.115zm12.942-3.057L16 32.78v-3.448h2.667v-2.666h-16v2.666h2.666v3.448l-3.609 3.61a1.332 1.332 0 0 0 0 1.885l4 4a1.33 1.33 0 0 0 1.885 0l3.058-3.057 3.057 3.057a1.33 1.33 0 0 0 1.885 0l4-4a1.332 1.332 0 0 0 0-1.885zM28 25.333l6-8h12l6 8H28zm8-10.666h8v-12h-8v12zm19.733 11.2l-8-10.667a1.334 1.334 0 0 0-1.066-.533V1.333C46.667.597 46.07 0 45.333 0H34.667c-.738 0-1.334.597-1.334 1.333v13.334c-.418 0-.814.197-1.066.533l-8 10.667A1.332 1.332 0 0 0 25.333 28h29.334a1.335 1.335 0 0 0 1.066-2.133z"/>
</svg>
