<svg xmlns="http://www.w3.org/2000/svg" width="72" height="80" viewBox="0 0 72 80">
    <path fill="#620A08" fill-rule="evenodd" d="M29.697 22.491l-.037.002-.034.002a1.597 1.597 0 0 0-.113.011l-.039.005a1.567 1.567 0 0 0-.11.023l-.033.007a1.55 1.55 0 0 0-.133.04l-.042.016-.086.036-.053.026a1.616 1.616 0 0 0-.195.117l-.041.029a1.57 1.57 0 0 0-.093.075c-.004.004-.01.007-.014.012a1.637 1.637 0 0 0-.1.099c-.008.007-.014.015-.02.022a1.54 1.54 0 0 0-.071.085l-.027.036a1.493 1.493 0 0 0-.124.199l-.026.052c-.012.025-.023.05-.033.076-.008.02-.017.038-.023.057a1.563 1.563 0 0 0-.07.259l-.006.03-.002.02a1.61 1.61 0 0 0-.015.142 80.686 80.686 0 0 1-.291 3.56h-6.424c.809-1.857 1.562-3.483 2.211-4.765.02-.04.04-.083.056-.126l.01-.023c.003-.008.005-.017.009-.025a1.6 1.6 0 0 0 .07-.263c.004-.02.006-.038.008-.058.004-.029.008-.057.01-.086a1.489 1.489 0 0 0-.005-.295l-.003-.039a1.514 1.514 0 0 0-.021-.119l-.004-.02a1.573 1.573 0 0 0-.039-.139c0-.003-.002-.005-.003-.008-.013-.04-.029-.08-.046-.12l-.02-.042a1.441 1.441 0 0 0-.11-.2l-.034-.05a1.577 1.577 0 0 0-.054-.07l-.031-.04a1.548 1.548 0 0 0-.093-.1l-.03-.027a1.568 1.568 0 0 0-.079-.068l-.036-.028a1.519 1.519 0 0 0-.087-.062l-.033-.021-.029-.02.697-2.594 6.638 1.775-.697 2.595zm-.384 24.892l-18.388-4.918c1.357-2.675 4.111-4.61 5.328-4.64a1.565 1.565 0 0 0 1.424-1.009c.814-2.141 1.64-4.226 2.44-6.163h7.397a215.715 215.715 0 0 1-.947 6.76l-.383-.101a1.562 1.562 0 1 0-.81 3.018l1.796.48c1.02.814 2.3 3.719 2.143 6.573zM23.287 70.49L4.571 65.482 9.95 45.44l18.716 5.007-5.38 20.043zm-1.393 5.19c-.109.405-.404.748-.83.965a2.28 2.28 0 0 1-1.623.146l-7.347-1.965-7.349-1.966c-1.09-.291-1.807-1.293-1.567-2.187L3.76 68.5l18.717 5.006-.583 2.171zm9.761-58.68l-7.54-2.017a2.822 2.822 0 0 0-2.413.476c-.505.391-.82.945-.888 1.55l-.835 3.112a2.32 2.32 0 0 0 0 1.82c.083.197.19.384.318.558a132.022 132.022 0 0 0-2.664 5.981l-.003.008a226.932 226.932 0 0 0-2.56 6.385c-2.925.792-6.653 4.209-7.738 8.25L.154 69.862c-.69 2.574 1.006 5.272 3.781 6.014l7.348 1.966 7.348 1.966c.478.128.964.191 1.445.191.837 0 1.66-.192 2.406-.57 1.229-.624 2.094-1.668 2.436-2.942l.987-3.679v-.002l.001-.001 6.19-23.06c1.084-4.041-.434-8.86-2.57-11.006.539-3.382.986-6.651 1.302-9.474l.003-.025c.158-1.414.283-2.715.37-3.863a2.694 2.694 0 0 0 1.425-1.723l.913-3.4a2.662 2.662 0 0 0-1.884-3.256zm-9.93 19.12l-.037-.01a1.562 1.562 0 1 0-.807 3.02l.037.01a1.566 1.566 0 0 0 1.916-1.107 1.562 1.562 0 0 0-1.109-1.913m-2.43 22.561a2.773 2.773 0 0 1-5.076.667 2.743 2.743 0 0 1-.277-2.1 2.773 2.773 0 0 1 5.077-.666c.37.64.468 1.385.276 2.1m2.435-3.662a5.86 5.86 0 0 0-3.584-2.745 5.906 5.906 0 0 0-7.227 4.166 5.843 5.843 0 0 0 .589 4.47 5.861 5.861 0 0 0 3.583 2.745 5.907 5.907 0 0 0 7.228-4.166 5.842 5.842 0 0 0-.59-4.47m46.856 16.904a2.275 2.275 0 0 1-1.332.936L52.557 76.79c-.563.15-1.14.099-1.622-.146-.427-.217-.722-.56-.83-.966l-.583-2.17L68.238 68.5l.583 2.17c.109.407.025.851-.236 1.252zm-19.874-1.434l-5.38-20.043 18.717-5.007 5.38 20.044-18.717 5.006zM44.83 40.811l1.796-.48a1.562 1.562 0 1 0-.81-3.02l-.383.103c-.368-2.37-.689-4.663-.947-6.76h7.397c.8 1.936 1.627 4.021 2.44 6.162.225.594.788.992 1.424 1.008 1.217.03 3.97 1.966 5.328 4.64l-18.388 4.92c-.157-2.855 1.123-5.76 2.143-6.573zm-2.292-18.298a1.73 1.73 0 0 0-.151-.017c-.019-.002-.037-.003-.056-.003l-.03-.002-.695-2.595 6.637-1.775.697 2.595-.03.019a2.373 2.373 0 0 0-.12.083l-.035.028a1.59 1.59 0 0 0-.078.068l-.031.028a1.524 1.524 0 0 0-.092.099c-.012.013-.022.027-.033.041a1.56 1.56 0 0 0-.158.238 1.434 1.434 0 0 0-.04.08l-.02.044a1.707 1.707 0 0 0-.045.117l-.004.01a1.63 1.63 0 0 0-.038.14l-.004.021a1.525 1.525 0 0 0-.02.117c-.003.013-.004.027-.005.04a1.742 1.742 0 0 0-.008.24l.003.055c.002.028.006.057.01.085l.008.058a1.461 1.461 0 0 0 .068.254l.012.035.006.014c.018.046.038.092.06.135.65 1.282 1.402 2.908 2.211 4.763h-6.424a80.226 80.226 0 0 1-.29-3.559 1.647 1.647 0 0 0-.016-.142c0-.007 0-.013-.002-.02l-.006-.03a1.571 1.571 0 0 0-.07-.26l-.02-.052a1.892 1.892 0 0 0-.036-.081l-.025-.049a1.96 1.96 0 0 0-.044-.08l-.026-.042a1.691 1.691 0 0 0-.055-.08l-.027-.036a1.611 1.611 0 0 0-.069-.083l-.022-.025a1.55 1.55 0 0 0-.098-.096l-.037-.03c-.022-.02-.044-.038-.067-.056l-.06-.042a1.669 1.669 0 0 0-.122-.075l-.04-.022a1.64 1.64 0 0 0-.084-.04c-.008-.005-.017-.008-.025-.012a1.542 1.542 0 0 0-.297-.092l-.057-.011zm29.307 47.35l-7.177-26.742c-1.085-4.04-4.814-7.457-7.738-8.249a226.28 226.28 0 0 0-2.564-6.393 131.754 131.754 0 0 0-2.663-5.981c.127-.174.235-.36.316-.558.25-.6.248-1.25.002-1.82l-.836-3.112a2.28 2.28 0 0 0-.888-1.55 2.822 2.822 0 0 0-2.413-.476l-7.54 2.017a2.645 2.645 0 0 0-1.616 1.239 2.637 2.637 0 0 0-.267 2.017l.912 3.4c.21.783.748 1.392 1.426 1.723.087 1.147.211 2.447.37 3.861l.003.03c.316 2.822.763 6.09 1.3 9.47-2.135 2.146-3.653 6.966-2.569 11.006l7.178 26.742c.342 1.274 1.208 2.32 2.437 2.943a5.31 5.31 0 0 0 2.406.57c.48 0 .966-.064 1.444-.192l14.696-3.93a5.4 5.4 0 0 0 3.145-2.25c.752-1.154.978-2.49.636-3.765zM52.225 37.215a1.565 1.565 0 0 0-1.916-1.105l-.037.01a1.562 1.562 0 1 0 .81 3.018l.036-.01a1.562 1.562 0 0 0 1.107-1.913m5.555 22.132a2.752 2.752 0 0 1-1.683 1.29 2.774 2.774 0 0 1-3.394-1.956 2.745 2.745 0 0 1 .277-2.1 2.787 2.787 0 0 1 2.403-1.384c1.25 0 2.35.843 2.673 2.051a2.746 2.746 0 0 1-.276 2.1m3.3-2.909a5.907 5.907 0 0 0-7.228-4.165 5.86 5.86 0 0 0-3.583 2.744 5.845 5.845 0 0 0-.59 4.47 5.907 5.907 0 0 0 5.698 4.368c.515 0 1.03-.067 1.53-.201a5.86 5.86 0 0 0 3.583-2.745 5.844 5.844 0 0 0 .59-4.47M36 0c-.865 0-1.566.7-1.566 1.562v4.182c0 .863.7 1.563 1.565 1.563.864 0 1.565-.7 1.565-1.563V1.562C37.564.7 36.864 0 36 0m-5.234 7.843L28.637 4.22a1.567 1.567 0 0 0-2.142-.557 1.561 1.561 0 0 0-.558 2.138l2.128 3.622a1.565 1.565 0 0 0 2.7-1.581m14.74-4.18a1.567 1.567 0 0 0-2.143.558l-2.128 3.622a1.56 1.56 0 0 0 1.349 2.353c.537 0 1.06-.276 1.351-.772l2.128-3.622a1.561 1.561 0 0 0-.558-2.138"/>
</svg>
