<svg xmlns="http://www.w3.org/2000/svg" width="66" height="80" viewBox="0 0 66 80">
    <path fill="#620A08" fill-rule="evenodd" d="M7.857 32.187c-.867 0-1.571.7-1.571 1.563 0 .862.704 1.562 1.571 1.562.868 0 1.572-.7 1.572-1.562 0-.863-.704-1.563-1.572-1.563m55 3.311c0 9.164-2.907 17.893-8.407 25.244-5.894 7.875-13.495 13.562-21.45 16.06-7.955-2.498-15.556-8.185-21.45-16.06-5.5-7.35-8.407-16.08-8.407-25.244V16.536c7.853-.267 15.267-2.537 22.06-6.76a47.422 47.422 0 0 0 7.805-6.067c3.295 3.255 12.695 12.303 29.85 12.83v18.96zm1.572-22.06c-17.125 0-26.327-9.099-29.351-12.089-.616-.609-.925-.914-1.25-1.115a1.58 1.58 0 0 0-1.656 0c-.224.138-.404.314-.84.737-1.12 1.087-3.741 3.634-7.795 6.156-6.737 4.187-14.127 6.31-21.966 6.31C.704 13.437 0 14.137 0 15v20.498c0 9.841 3.122 19.215 9.03 27.11 6.405 8.559 14.757 14.712 23.518 17.326a1.581 1.581 0 0 0 .904 0c8.76-2.614 17.113-8.767 23.519-17.326C62.878 54.713 66 45.339 66 35.498V15c0-.863-.704-1.563-1.571-1.563zm-6.113 5.92c-8.65-.952-16.855-4.432-24.39-10.344A1.578 1.578 0 0 0 31.998 9c-7.463 5.68-16.103 9.347-24.328 10.327-.79.094-1.384.76-1.384 1.551V27.5c0 .863.703 1.562 1.571 1.562s1.572-.7 1.572-1.562v-5.258c5.978-.905 14.467-3.423 23.51-10.037 7.333 5.525 15.272 8.912 23.632 10.084V35.5c0 7.808-2.477 15.246-7.166 21.51C44.915 63.012 39.252 67.402 33 69.731c-6.252-2.33-11.914-6.718-16.404-12.721-3.783-5.054-6.173-11.002-6.913-17.201a1.568 1.568 0 0 0-1.745-1.368 1.564 1.564 0 0 0-1.376 1.736c.804 6.741 3.403 13.207 7.513 18.698 4.988 6.67 11.35 11.508 18.4 13.992a1.578 1.578 0 0 0 1.05 0c7.05-2.484 13.413-7.323 18.402-13.994 5.094-6.807 7.787-14.89 7.787-23.376V20.911c0-.796-.602-1.465-1.398-1.553M38.924 40.481c-.37.359-.54.876-.452 1.383l1.134 6.574-5.936-3.104a1.578 1.578 0 0 0-1.463 0L26.27 48.44l1.133-6.575a1.556 1.556 0 0 0-.452-1.383l-4.803-4.655 6.639-.96a1.57 1.57 0 0 0 1.183-.854l2.968-5.98 2.968 5.98a1.57 1.57 0 0 0 1.183.855l6.639.959-4.804 4.655zm9.676-6.23a1.57 1.57 0 0 0-1.269-1.063l-8.972-1.296-4.011-8.083a1.573 1.573 0 0 0-1.41-.872c-.597 0-1.144.338-1.408.871l-4.013 8.084-8.972 1.296a1.57 1.57 0 0 0-1.269 1.063 1.556 1.556 0 0 0 .398 1.602l6.493 6.292-1.533 8.886a1.558 1.558 0 0 0 .626 1.528 1.577 1.577 0 0 0 1.654.12l8.025-4.197 8.023 4.196a1.58 1.58 0 0 0 1.655-.119c.484-.35.726-.942.625-1.528l-1.532-8.886 6.492-6.292a1.556 1.556 0 0 0 .398-1.602z"/>
</svg>
