<svg xmlns="http://www.w3.org/2000/svg" width="80" height="80" viewBox="0 0 80 80">
    <path fill="#620A08" fill-rule="evenodd" d="M47.198 64.833a1.574 1.574 0 0 0-1.104-.458c-.411 0-.814.167-1.105.458-.29.29-.458.694-.458 1.104 0 .411.167.815.458 1.105.29.29.694.458 1.105.458.41 0 .814-.167 1.104-.458.29-.29.458-.694.458-1.105 0-.41-.167-.814-.458-1.104M31.014 53.895a1.574 1.574 0 0 0-1.105-.458A1.568 1.568 0 0 0 28.346 55c0 .41.166.814.459 1.105.29.29.692.457 1.104.457.411 0 .814-.167 1.105-.457.29-.291.458-.694.458-1.105 0-.411-.167-.814-.458-1.105m27.668 16.73H21.318a11.955 11.955 0 0 1-11.315-8.092l-2.039-5.97h15.72a1.563 1.563 0 0 0 0-3.126H6.897L5.83 50.31l.109.002h68.124l.109-.002-4.175 12.223c-.22.644-.492 1.258-.809 1.842H52.32a1.563 1.563 0 0 0 0 3.125H66.74a11.947 11.947 0 0 1-8.059 3.125zM3.125 44.375a2.816 2.816 0 0 1 2.813-2.813h68.124a2.816 2.816 0 0 1 2.813 2.813 2.816 2.816 0 0 1-2.813 2.813H5.939a2.816 2.816 0 0 1-2.813-2.813zM41.25 10.312a5.948 5.948 0 0 1 5.729 4.376H33.02a5.948 5.948 0 0 1 5.729-4.376h2.5zM75 70a3.076 3.076 0 0 0-3.073 3.073 1.562 1.562 0 0 0 3.124.053A1.877 1.877 0 0 1 76.875 75 1.877 1.877 0 0 1 75 76.875h-.988a4.323 4.323 0 0 1-3.077-1.275l-4.19-4.19a15.063 15.063 0 0 0 6.209-7.867l5.023-14.71A5.923 5.923 0 0 0 80 44.375a5.944 5.944 0 0 0-5.938-5.938H40.935c.38-.284.627-.737.627-1.25v-.78a1.562 1.562 0 1 0-3.124 0v.78c0 .513.247.966.627 1.25H6.563V8.595a5.475 5.475 0 0 1 5.468-5.469H32.97a5.478 5.478 0 0 1 5.288 4.076c-4.769.257-8.57 4.217-8.57 9.049 0 .863.7 1.563 1.563 1.563h17.5c.863 0 1.563-.7 1.563-1.563 0-4.931-3.96-8.952-8.867-9.057C40.776 3.118 37.23 0 32.97 0H12.03C7.293 0 3.437 3.855 3.437 8.594V38.99A5.945 5.945 0 0 0 0 44.375c0 1.775.784 3.37 2.022 4.458l5.024 14.71a15.063 15.063 0 0 0 6.209 7.868l-4.19 4.19a4.325 4.325 0 0 1-3.078 1.274H5A1.877 1.877 0 0 1 3.125 75c0-1.017.813-1.847 1.824-1.874a1.563 1.563 0 0 0 3.124-.053A3.076 3.076 0 0 0 5 70c-2.757 0-5 2.243-5 5s2.243 5 5 5h.987a7.429 7.429 0 0 0 5.288-2.19l4.947-4.948c1.604.576 3.323.888 5.096.888h37.364c1.773 0 3.492-.312 5.095-.888l4.948 4.948A7.43 7.43 0 0 0 74.012 80H75c2.757 0 5-2.243 5-5s-2.243-5-5-5zM48.25 31.17l-.157-.765a1.563 1.563 0 0 0-3.062.624l.156.766a1.563 1.563 0 0 0 3.062-.625m-1.092-5.358L47 25.047a1.562 1.562 0 1 0-3.062.624l.156.765a1.563 1.563 0 1 0 3.062-.624m-1.093-5.359l-.156-.765a1.563 1.563 0 0 0-3.062.624l.157.766a1.563 1.563 0 1 0 3.061-.625m3.278 16.076l-.156-.766a1.562 1.562 0 0 0-3.062.625l.156.765a1.563 1.563 0 1 0 3.062-.624M40 29.375c-.863 0-1.563.7-1.563 1.562v.782a1.562 1.562 0 1 0 3.125 0v-.782c0-.863-.7-1.562-1.562-1.562m0-10.938c-.863 0-1.563.7-1.563 1.563v.781a1.562 1.562 0 1 0 3.125 0V20c0-.863-.7-1.563-1.562-1.563m0 5.47c-.863 0-1.563.699-1.563 1.562v.78a1.562 1.562 0 1 0 3.125 0v-.78c0-.863-.7-1.563-1.562-1.563m-4.065-5.437a1.562 1.562 0 0 0-1.843 1.219l-.156.765a1.562 1.562 0 1 0 3.061.625l.157-.766a1.562 1.562 0 0 0-1.22-1.843m-1.092 5.359A1.562 1.562 0 0 0 33 25.046l-.156.766a1.562 1.562 0 1 0 3.062.624l.156-.765a1.562 1.562 0 0 0-1.219-1.843m-2.185 10.717a1.562 1.562 0 0 0-1.843 1.218l-.156.766a1.562 1.562 0 1 0 3.062.624l.156-.765a1.562 1.562 0 0 0-1.219-1.843m1.093-5.359a1.563 1.563 0 0 0-1.843 1.219l-.156.765a1.562 1.562 0 1 0 3.062.625l.156-.766a1.562 1.562 0 0 0-1.22-1.843"/>
</svg>
