<svg xmlns="http://www.w3.org/2000/svg" width="93" height="80" viewBox="0 0 93 80">
    <path fill="#620A08" fill-rule="evenodd" d="M46.5 16.364c-3.756 0-6.812-3.059-6.812-6.819s3.056-6.818 6.812-6.818c3.756 0 6.812 3.059 6.812 6.818 0 3.76-3.056 6.819-6.812 6.819M46.5 0c-5.258 0-9.536 4.282-9.536 9.545 0 5.264 4.278 9.546 9.536 9.546s9.536-4.282 9.536-9.546C56.036 4.282 51.758 0 46.5 0m3.996 8.182h-2.634V5.545a1.363 1.363 0 1 0-2.724 0v4c0 .754.61 1.364 1.362 1.364h3.996a1.363 1.363 0 0 0 0-2.727m-8.083 63.636h8.174v-1.151h-8.174v1.151zm-3.04-8.45a.868.868 0 0 1-.865-.866v-.994c0-.478.388-.867.866-.867H53.626c.478 0 .866.39.866.867v.994a.867.867 0 0 1-.866.867H39.374zm.497-22.084a3.184 3.184 0 0 1 3.179-3.182h6.902a3.184 3.184 0 0 1 3.179 3.182v14.358a2.274 2.274 0 0 1-2.27 2.272h-8.72a2.274 2.274 0 0 1-2.27-2.272V41.284zm-2.724 10.534H4.086a1.364 1.364 0 0 1 0-2.727h33.06v2.727zM13.48 41.364a3.184 3.184 0 0 1 3.18-3.182h6.901a3.184 3.184 0 0 1 3.18 3.182v5h-13.26v-5zm42.373 7.727h33.06a1.364 1.364 0 0 1 0 2.727h-33.06v-2.727zm9.627-7.727a3.184 3.184 0 0 1 3.18-3.182h6.901a3.184 3.184 0 0 1 3.18 3.182v5h-13.26v-5zm23.432 30.454h-.587V69.03a1.363 1.363 0 1 0-2.724 0v2.788H63.907a1.363 1.363 0 0 0 0 2.727h25.006a1.364 1.364 0 0 1 0 2.728H4.087a1.364 1.364 0 0 1 0-2.728h54.008a1.363 1.363 0 0 0 0-2.727h-4.783v-2.515c0-.753-.61-1.364-1.363-1.364h-4.087v-1.843h5.764c1.98 0 3.59-1.612 3.59-3.594v-.994c0-1.447-.86-2.694-2.094-3.263.464-.759.732-1.65.732-2.604v-1.096h29.748v8.637a1.363 1.363 0 1 0 2.724 0v-8.637h.587c1.093 0 2.12-.426 2.887-1.197.774-.772 1.2-1.8 1.2-2.893a4.094 4.094 0 0 0-4.087-4.091h-7.447v-5c0-3.259-2.648-5.91-5.903-5.91H68.66c-3.255 0-5.903 2.651-5.903 5.91v5h-6.903v-5.08c0-3.258-2.648-5.91-5.903-5.91H43.05c-3.255 0-5.903 2.652-5.903 5.91v5.08h-7.68v-5c0-3.259-2.648-5.91-5.904-5.91H16.66c-3.255 0-5.903 2.651-5.903 5.91v5h-6.67c-1.093 0-2.12.426-2.887 1.197-.774.772-1.2 1.8-1.2 2.894a4.094 4.094 0 0 0 4.087 4.09h.587v2.88a1.363 1.363 0 1 0 2.724 0v-2.88h29.748v1.096c0 .954.268 1.845.732 2.604a3.596 3.596 0 0 0-2.095 3.263v.994a3.597 3.597 0 0 0 3.59 3.594h5.765v1.844H41.05c-.753 0-1.363.61-1.363 1.363v2.515H7.398v-8.636a1.363 1.363 0 1 0-2.724 0v8.636h-.587A4.094 4.094 0 0 0 0 75.91 4.094 4.094 0 0 0 4.087 80h84.826A4.094 4.094 0 0 0 93 75.91a4.094 4.094 0 0 0-4.087-4.092z"/>
</svg>
