<svg xmlns="http://www.w3.org/2000/svg" width="74" height="80" viewBox="0 0 74 80">
    <path fill="#620A08" fill-rule="evenodd" d="M43.938 58.135a1.485 1.485 0 0 0-1.018 1.408v2.68H31.08v-2.68c0-.639-.41-1.206-1.018-1.408A22.168 22.168 0 0 1 14.8 37.036c0-12.253 9.959-22.221 22.2-22.221s22.2 9.968 22.2 22.221a22.168 22.168 0 0 1-15.262 21.1zM41.44 72.591c-.818 0-1.48.661-1.48 1.482v2.963h-5.92v-2.963c0-.821-.662-1.482-1.48-1.482h-1.48v-7.407h11.84v7.407h-1.48zM37 11.851c-13.875 0-25.16 11.298-25.16 25.185a25.124 25.124 0 0 0 16.28 23.555v13.483c0 .82.66 1.482 1.48 1.482h1.48v2.963c0 .819.66 1.481 1.48 1.481h8.88a1.48 1.48 0 0 0 1.48-1.481v-2.963h1.48a1.48 1.48 0 0 0 1.48-1.482V60.591a25.124 25.124 0 0 0 16.28-23.555c0-13.887-11.286-25.184-25.16-25.184zm0-2.962a1.48 1.48 0 0 0 1.48-1.482V1.481a1.48 1.48 0 1 0-2.96 0v5.926c0 .82.662 1.482 1.48 1.482m35.52 26.666H66.6a1.48 1.48 0 0 0-1.48 1.481c0 .82.662 1.482 1.48 1.482h5.92A1.48 1.48 0 0 0 74 37.036a1.48 1.48 0 0 0-1.48-1.481m-65.12 0H1.48A1.48 1.48 0 0 0 0 37.036c0 .82.662 1.482 1.48 1.482H7.4a1.48 1.48 0 0 0 1.48-1.482 1.48 1.48 0 0 0-1.48-1.481m53.46-24.75l-4.186 4.189a1.48 1.48 0 0 0 2.093 2.094l4.185-4.19c.58-.578.58-1.515 0-2.094a1.479 1.479 0 0 0-2.093 0M14.98 56.73l-4.185 4.19a1.48 1.48 0 0 0 2.093 2.094l4.185-4.19a1.48 1.48 0 0 0-2.093-2.094m43.788 0a1.48 1.48 0 0 0-2.093 2.095l4.185 4.189a1.475 1.475 0 0 0 2.093 0c.58-.578.58-1.516 0-2.095l-4.185-4.19zM14.979 17.089a1.475 1.475 0 0 0 2.093 0 1.48 1.48 0 0 0 0-2.095l-4.185-4.19a1.48 1.48 0 0 0-2.093 2.095l4.185 4.19zM37 19.259c-9.793 0-17.76 7.975-17.76 17.777a1.48 1.48 0 1 0 2.96 0c0-8.168 6.64-14.814 14.8-14.814a1.48 1.48 0 0 0 1.48-1.482A1.48 1.48 0 0 0 37 19.26"/>
</svg>
