<svg xmlns="http://www.w3.org/2000/svg" width="80" height="59" viewBox="0 0 80 59">
    <path fill="#620A08" fill-rule="evenodd" d="M62.667 44.25h6.666v-5.364h-6.666v5.364zm-56 5.364v-2.682h66.666v2.682H6.667zm-4 6.704v-4.023h74.666v4.023H2.667zm8-12.068h6.666v-5.364h-6.666v5.364zm0-24.136h6.666V14.75h-6.666v5.364zm-4-10.727h66.666v2.681H6.667V9.387zm-4-6.705h74.666v4.023H2.667V2.682zM56.4 0H23.6h32.8zm6.266 20.114h6.667V14.75h-6.667v5.364zm0 13.409V30.84h6.667v5.364h-6.666v-2.682zm0-5.364h6.667v-5.363h-6.667v5.363zM20 34.998c2.267.67 4 2.682 4 5.23a6.92 6.92 0 0 0 1.333 4.022H20v-9.252zm-9.333-4.157h6.666v5.364h-6.666V30.84zm0-2.682v-5.363h6.666v5.363h-6.666zM32 37.545c0-2.28.667-3.754 1.467-4.96.666.804 1.6 1.34 2.4 2.01l.266.135c.667.402 1.6.402 2.4-.135.667-.536 1.067-1.34.934-2.28-.534-3.351-.134-4.826 1.866-6.704.267 2.012 1.2 3.62 3.2 5.096 3.734 2.547 3.6 4.961 3.467 6.302-.133 2.28-1.2 4.157-2.933 5.498-1.32.948-2.788 1.538-4.278 1.743h-2.35a8.277 8.277 0 0 1-2.572-.805C33.467 42.24 32 39.96 32 37.545zm14.995 6.705c2.079-1.756 3.418-4.437 3.671-7.24.134-1.61.4-5.23-4.533-8.717-1.733-1.34-2.267-2.547-2.133-5.498 0-.536-.267-1.072-.8-1.34-.533-.269-1.067-.134-1.467.134-4.133 3.084-5.6 5.23-5.067 10.056-1.066-.67-1.6-1.072-1.6-2.011 0-.67-.4-1.207-.933-1.34-.533-.135-1.067.133-1.467.535l-.4.537c-1.333 1.743-2.933 3.888-2.933 8.045 0 2.621 1.131 5.09 3.109 6.839h-1.775c-2.267 0-4-1.743-4-4.023 0-3.968-2.896-7.287-6.667-7.93V14.75h40v17.547c-3.771.643-6.667 3.962-6.667 7.93 0 2.28-1.733 4.023-4 4.023h-2.338zm7.672 0A6.92 6.92 0 0 0 56 40.227c0-2.547 1.733-4.693 4-5.23v9.253h-5.333zM72 14.75h1.333C74.8 14.75 76 13.543 76 12.068V9.386h1.333C78.8 9.386 80 8.18 80 6.705V2.682C80 1.207 78.8 0 77.333 0H2.667C1.2 0 0 1.207 0 2.682v4.023C0 8.18 1.2 9.387 2.667 9.387H4v2.681c0 1.476 1.2 2.682 2.667 2.682H8v29.5H6.667C5.2 44.25 4 45.457 4 46.932v2.682H2.667C1.2 49.614 0 50.82 0 52.295v4.023C0 57.793 1.2 59 2.667 59h74.666C78.8 59 80 57.793 80 56.318v-4.023c0-1.475-1.2-2.681-2.667-2.681H76v-2.682c0-1.475-1.2-2.682-2.667-2.682H72v-29.5z"/>
</svg>
