<svg xmlns="http://www.w3.org/2000/svg" width="23" height="26" viewBox="0 0 23 26">
    <path fill="#FE2740" fill-rule="evenodd" d="M19.55 22.14a2.414 2.414 0 0 1-2.404 2.417H5.854A2.414 2.414 0 0 1 3.45 22.14V5.185h16.104v16.956h-.006zM7.533 2.86c0-.78.632-1.417 1.409-1.417h5.114c.777 0 1.41.636 1.41 1.417v.882H7.533V2.86zm14.748.882h-5.38V2.86A2.855 2.855 0 0 0 14.057 0H8.943a2.855 2.855 0 0 0-2.845 2.86v.882H.718A.717.717 0 0 0 0 4.463c0 .401.319.722.718.722h1.297v16.956C2.015 24.268 3.738 26 5.854 26h11.292c2.116 0 3.839-1.732 3.839-3.86V5.186h1.297c.399 0 .718-.32.718-.722 0-.4-.319-.721-.718-.721zM11.5 21.97c.399 0 .718-.321.718-.722V8.494a.717.717 0 1 0-1.436 0v12.749c0 .4.32.727.718.727m-4.684-.797c.399 0 .718-.32.718-.722V9.285a.717.717 0 1 0-1.436 0v11.166c0 .401.325.722.718.722m9.368 0c.399 0 .718-.32.718-.722V9.285a.717.717 0 1 0-1.436 0v11.166c0 .401.32.722.718.722"/>
</svg>
