<svg xmlns="http://www.w3.org/2000/svg" width="50" height="50" viewBox="0 0 50 50">
    <path fill="#FC0" fill-rule="evenodd" d="M22.412 17.512h6.052v4.615h-6.052v6.051h-4.615v-6.05h-6.04v-4.616h6.05v-6.051h4.616v6.051h-.01zm7.692 12.592c-5.542 5.542-14.548 5.542-20.08 0-5.542-5.542-5.542-14.548 0-20.08 5.542-5.542 14.548-5.542 20.08 0 5.532 5.532 5.532 14.538 0 20.08zm7.06.407c4.717-7.722 3.759-17.96-2.914-24.643-7.824-7.824-20.558-7.824-28.382 0-7.824 7.824-7.824 20.558 0 28.372 6.673 6.673 16.911 7.63 24.643 2.914l11.461 11.46a4.71 4.71 0 0 0 6.653 0 4.71 4.71 0 0 0 0-6.652l-11.461-11.45z"/>
</svg>
