<svg xmlns="http://www.w3.org/2000/svg" xmlns:xlink="http://www.w3.org/1999/xlink" width="155" height="78" viewBox="0 0 155 78">
    <defs>
        <path id="a" d="M0 0h1v9H0z"/>
        <path id="b" d="M17.92 4.205h.007V5.2l.001.002v.003h-.005l-3.396 1.961-.5-.866 1.945-1.123-12.907-.185 1.842 1.064-.5.866-3.393-1.959H1v-1h.005L4.405 2l.5.866-1.949 1.125 12.914.185-1.845-1.066.5-.866 3.396 1.961z"/>
        <path id="c" d="M17.927.242h1v9h-1z"/>
        <path id="d" d="M0 1h1v9H0z"/>
        <path id="e" d="M18.628 4.498h.006v.995l.001.002v.003h-.005L15.234 7.46l-.5-.866 1.8-1.04-13.609.36 1.982 1.143-.5.866-3.394-1.96H1v-1h.005L4.405 3l.5.866L3.1 4.908l13.614-.36-1.983-1.145.5-.866 3.396 1.961z"/>
        <path id="f" d="M18.634.535h1v9h-1z"/>
        <path id="g" d="M0 0h1v9H0z"/>
        <path id="h" d="M50.342 4.063h.007v1l-3.401 1.961-.5-.866 1.903-1.099-45.33-.092 1.886 1.09-.5.865-3.394-1.96H1v-1L4.405 2l.5.866-1.907 1.101 45.337.092-1.89-1.09.5-.867 3.397 1.961z"/>
        <path id="i" d="M50.349.1h1v9h-1z"/>
        <path id="j" d="M0 0h1v9H0z"/>
        <path id="k" d="M50.342 4.063h.007v1l-3.401 1.961-.5-.866 1.903-1.099-45.33-.092 1.886 1.09-.5.865-3.394-1.96H1v-1L4.405 2l.5.866-1.907 1.101 45.337.092-1.89-1.09.5-.867 3.397 1.961z"/>
        <path id="l" d="M50.349.1h1v9h-1z"/>
        <path id="m" d="M0 0h1v9H0z"/>
        <path id="n" d="M58.994 3.963H59v.995l.001.002H59v.003l-3.4 1.96-.5-.865 1.896-1.095H3.013l1.894 1.093-.5.866-3.394-1.96H1v-1L4.405 2l.5.866-1.9 1.097h53.989l-1.897-1.095.5-.866 3.397 1.96z"/>
        <path id="o" d="M59 0h1v9h-1z"/>
        <path id="p" d="M0 0h1v9H0z"/>
        <path id="q" d="M18.994 3.963H19v.995l.001.002H19v.003h-.004l-3.397 1.96-.5-.865 1.897-1.095H3.013l1.894 1.093-.5.866-3.394-1.96H1v-1h.005L4.405 2l.5.866-1.9 1.097h13.989l-1.897-1.095.5-.866 3.397 1.96z"/>
        <path id="r" d="M19 0h1v9h-1z"/>
    </defs>
    <g fill="none" fill-rule="evenodd">
        <path fill="#620A08" d="M99.854 37.87H54.31L26.223 65.936a4 4 0 0 1-5.656 0l-8.395-8.392a4 4 0 0 1 0-5.658h.001L44.22 19.864c.104-.104.212-.201.324-.291A3.994 3.994 0 0 1 47.724 18h58.63a3.99 3.99 0 0 1 3.02 1.378c.21.142.41.306.595.493l32.607 32.722a4 4 0 0 1-.005 5.652l-8.394 8.393a4 4 0 0 1-5.662-.005L99.855 37.87z"/>
        <text fill="#FFF" font-family="Roboto-Regular, Roboto" font-size="7" transform="translate(0 -1)">
            <tspan x="58.637" y="31">Bar Top</tspan>
        </text>
        <text fill="#333" font-family="Roboto-Black, Roboto" font-size="9" font-weight="700" transform="translate(0 -1)">
            <tspan x=".771" y="76">A”</tspan>
        </text>
        <g transform="scale(1 -1) rotate(-45 -75.634 -32.743)">
            <use fill="#D8D8D8" xlink:href="#a"/>
            <path stroke="#979797" d="M.5.5h1v8h-1z"/>
        </g>
        <g transform="scale(1 -1) rotate(-45 -75.634 -32.743)">
            <use fill="#D8D8D8" xlink:href="#b"/>
            <path stroke="#979797" d="M17.727 4.67l-.832-.48.832.48zm0 0l.056.033-.356-.005.366.005-.846.488.846-.488.127.002-.137-.002-.056-.032zM1.5 4.47l-.365-.005.06-.035-.06.035-.128-.002.144.002.888.513-.888-.513.349.005zm-.305-.04l.786-.453-.786.453zm.786-.453l1.7-.982-1.7.982zm.058 1l1.697.98-1.697-.98z"/>
        </g>
        <g transform="scale(1 -1) rotate(-45 -75.634 -32.743)">
            <use fill="#D8D8D8" xlink:href="#c"/>
            <path stroke="#979797" d="M18.427 4.742v4.5l.5-.5h-1l.5.5v-4.5zm0 0v-4.5l-.5.5h1l-.5-.5v4.5z"/>
        </g>
        <text fill="#333" font-family="Roboto-Black, Roboto" font-size="9" font-weight="700" transform="translate(0 -1)">
            <tspan x="146.103" y="77">F”</tspan>
        </text>
        <g transform="rotate(135 63.565 63.69)">
            <use fill="#D8D8D8" xlink:href="#d"/>
            <path stroke="#979797" d="M.5 1.5h1v8h-1z"/>
        </g>
        <g transform="rotate(135 63.565 63.69)">
            <use fill="#D8D8D8" xlink:href="#e"/>
            <path stroke="#979797" d="M18.621 4.999l-.12.003-.062-.036.061.036-.366.01.356-.01-.908.524.908-.524.131-.004zm-.182-.033l-.767-.443.767.443zM1.5 5.45l-.355.01.055-.032-.055.031-.132.004.128-.004.828.478-.828-.478.359-.01zm-.3-.022l.853-.493-.853.493zm.853-.493l1.7-.981-1.7.981zm-.084 1.002l1.697.98-1.697-.98z"/>
        </g>
        <g transform="rotate(135 63.565 63.69)">
            <use fill="#D8D8D8" xlink:href="#f"/>
            <path stroke="#979797" d="M19.134 5.035v4.5l.5-.5h-1l.5.5v-4.5zm0 0v-4.5l-.5.5h1l-.5-.5v4.5z"/>
        </g>
        <text fill="#333" font-family="Roboto-Black, Roboto" font-size="9" font-weight="700" transform="translate(0 -1)">
            <tspan x="16.082" y="30.92">B”</tspan>
        </text>
        <g transform="rotate(-45 57.456 20.97)">
            <use fill="#D8D8D8" xlink:href="#g"/>
            <path stroke="#979797" d="M.5.5h1v8h-1z"/>
        </g>
        <g transform="rotate(-45 57.456 20.97)">
            <use fill="#D8D8D8" xlink:href="#h"/>
            <path stroke="#979797" d="M49.849 4.562h.359l-.058-.033.058.034h.14v-.5h-.5v.5L1.5 4.462v-.209l-.362.21H1.5h-.352l.869.501-.87-.502h-.146l-.001.5h.5v-.5l48.349.1v.21l.362-.21h-.362zm0 .212v.29h.495l.004-.003-.25-.431-.002.001-.247.43v.131l.068.118.427-.247h.005l-.001-.002h.002l-.25-.434h-.001l-.003.004-.247.143zM47.13 6.341l-.433.25.683.183-.25-.433zm0 0l-.25-.433-.183.683.433-.25zM3.714 5.945l.943.544-.183-.683-.5.866.683-.183-.943-.544zM1.5 4.252v-.29l-.25.434.25-.144zm2.722-1.57l.433-.249-.683-.183.25.433zm0 .001l.25.433.183-.683-.433.25zM50.15 4.529l-2.51-1.448 2.51 1.448zm-2.51-1.448l-.944-.546.183.683.5-.866-.683.183.944.546z"/>
        </g>
        <g transform="rotate(-45 57.456 20.97)">
            <use fill="#D8D8D8" xlink:href="#i"/>
            <path stroke="#979797" d="M50.849 4.6v4.5l.5-.5h-1l.5.5V4.6zm0 0V.1l-.5.5h1l-.5-.5v4.5z"/>
        </g>
        <text fill="#333" font-family="Roboto-Black, Roboto" font-size="9" font-weight="700" transform="translate(0 -1)">
            <tspan x="133.546" y="32">E”</tspan>
        </text>
        <g>
            <g transform="scale(-1 1) rotate(-45 -18.757 208.38)">
                <use fill="#D8D8D8" xlink:href="#j"/>
                <path stroke="#979797" d="M.5.5h1v8h-1z"/>
            </g>
            <g transform="scale(-1 1) rotate(-45 -18.757 208.38)">
                <use fill="#D8D8D8" xlink:href="#k"/>
                <path stroke="#979797" d="M49.849 4.562h.359l-.058-.033.058.034h.14v-.5h-.5v.5L1.5 4.462v-.209l-.362.21H1.5h-.352l.869.501-.87-.502h-.146l-.001.5h.5v-.5l48.349.1v.21l.362-.21h-.362zm0 .212v.29h.495l.004-.003-.25-.431-.002.001-.247.43v.131l.068.118.427-.247h.005l-.001-.002h.002l-.25-.434h-.001l-.003.004-.247.143zM47.13 6.341l-.433.25.683.183-.25-.433zm0 0l-.25-.433-.183.683.433-.25zM3.714 5.945l.943.544-.183-.683-.5.866.683-.183-.943-.544zM1.5 4.252v-.29l-.25.434.25-.144zm2.722-1.57l.433-.249-.683-.183.25.433zm0 .001l.25.433.183-.683-.433.25zM50.15 4.529l-2.51-1.448 2.51 1.448zm-2.51-1.448l-.944-.546.183.683.5-.866-.683.183.944.546z"/>
            </g>
            <g transform="scale(-1 1) rotate(-45 -18.757 208.38)">
                <use fill="#D8D8D8" xlink:href="#l"/>
                <path stroke="#979797" d="M50.849 4.6v4.5l.5-.5h-1l.5.5V4.6zm0 0V.1l-.5.5h1l-.5-.5v4.5z"/>
            </g>
        </g>
        <text fill="#333" font-family="Roboto-Black, Roboto" font-size="9" font-weight="700" transform="translate(0 -1)">
            <tspan x="72.111" y="8">C”</tspan>
        </text>
        <g>
            <g transform="translate(47 6)">
                <use fill="#D8D8D8" xlink:href="#m"/>
                <path stroke="#979797" d="M.5.5h1v8h-1z"/>
            </g>
            <g transform="translate(47 6)">
                <use fill="#D8D8D8" xlink:href="#n"/>
                <path stroke="#979797" d="M58.5 4.674v.289h.496l.003-.002-.249-.431-.002.001-.248.43v.131l.068.118.428-.247H59l-.001-.002.002-.001-.25-.433h-.001l-.002.004-.248.143zm-2.717 1.567l-.433.25.682.183-.25-.433zm0 0l-.25-.433-.184.683.433-.25zM58.5 4.67l.362-.208h-.001H59v-.5h-.5v.709zm.36-.208h-.932.932l-.866-.5.866.5zM3.71 5.943l.947.546-.183-.683-.5.866.683-.183-.947-.546zm-2.567-1.48H1v.5h.5v-.709l-.361.209h.004zm.357-.211v-.29l-.25.434.25-.144zm2.722-1.57l.433-.249-.683-.183.25.433zm0 .001l.25.433.183-.683-.433.25zm53.772 1.28l-2.647-1.528.183.683.5-.866-.683.183 2.647 1.528z"/>
            </g>
            <g transform="translate(47 6)">
                <use fill="#D8D8D8" xlink:href="#o"/>
                <path stroke="#979797" d="M59.5.5h1v8h-1z"/>
            </g>
        </g>
        <g>
            <g transform="rotate(90 40.5 58.5)">
                <use fill="#D8D8D8" xlink:href="#p"/>
                <path stroke="#979797" d="M.5 4.5V9l.5-.5H0l.5.5V4.5zm0 0V0L0 .5h1L.5 0v4.5z"/>
            </g>
            <g transform="rotate(90 40.5 58.5)">
                <use fill="#D8D8D8" xlink:href="#q"/>
                <path stroke="#979797" d="M18.995 4.463H19v-.5h-.5v1h.496L19 4.96v-.003l-.249-.431h-.001l-.25.434v.131l.068.118.428-.247H19V4.96l.001-.001L19 4.958v-.495h-.005zm0 0h-.133l-.866.5.866-.5h-.001.134zm-1 .5l-1.697.98 1.698-.98zm-1.697.98l-.949.548.683.183-.5-.866-.183.683.949-.548zm2.563-1.48h-.933.932l-.866-.5.866.5zm-16.785 0h-.929l.866.5-.866-.5h-.004.933zm1.634 1.48l.947.546-.183-.683-.5.866.683-.183-.947-.546zm-2.567-1.48h-.14.136l.866-.5-.866.5h.004zm-.14 0H1v.5h.5v-1H1v.5h.002zM3.704 2.98l.95-.548-.683-.183.5.866.183-.683-.95.548zm14.289.982l-2.647-1.528.183.683.5-.866-.683.183 2.647 1.528z"/>
            </g>
            <g transform="rotate(90 40.5 58.5)">
                <use fill="#D8D8D8" xlink:href="#r"/>
                <path stroke="#979797" d="M19.5 4.5V9l.5-.5h-1l.5.5V4.5zm0 0V0l-.5.5h1l-.5-.5v4.5z"/>
            </g>
        </g>
        <text fill="#FFF" font-family="Roboto-Black, Roboto" font-size="9" font-weight="700" transform="translate(0 -1)">
            <tspan x="98.162" y="32">B”</tspan>
        </text>
    </g>
</svg>
