<svg xmlns="http://www.w3.org/2000/svg" xmlns:xlink="http://www.w3.org/1999/xlink" width="101" height="92" viewBox="0 0 101 92">
    <defs>
        <path id="a" d="M0 0h1v9H0z"/>
        <path id="b" d="M23.994 3.963H24v.995l.001.002H24v.003h-.004l-3.397 1.96-.5-.865 1.897-1.095H3.013l1.894 1.093-.5.866-3.394-1.96H1v-1h.005L4.405 2l.5.866-1.9 1.097h18.989l-1.897-1.095.5-.866 3.397 1.96z"/>
        <path id="c" d="M24 0h1v9h-1z"/>
        <path id="d" d="M0 0h1v9H0z"/>
        <path id="e" d="M30.994 3.963H31v.995l.001.002H31v.003h-.004l-3.397 1.96-.5-.865 1.897-1.095H3.013l1.894 1.093-.5.866-3.394-1.96H1v-1h.005L4.405 2l.5.866-1.9 1.097h25.989l-1.897-1.095.5-.866 3.397 1.96z"/>
        <path id="f" d="M31 0h1v9h-1z"/>
        <path id="g" d="M0 0h1v9H0z"/>
        <path id="h" d="M79 3.963v.995l.001.002H79v.003l-3.4 1.96-.5-.865 1.896-1.095H3.013l1.894 1.093-.5.866-3.394-1.96H1v-1L4.405 2l.5.866-1.9 1.097h73.989l-1.897-1.095.5-.866 3.397 1.96z"/>
        <path id="i" d="M79 0h1v9h-1z"/>
        <path id="j" d="M0 0h1v9H0z"/>
        <path id="k" d="M31.994 3.963H32v.995l.001.002H32v.003h-.004l-3.397 1.96-.5-.865 1.897-1.095H3.013l1.894 1.093-.5.866-3.394-1.96H1v-1h.005L4.405 2l.5.866-1.9 1.097h26.989l-1.897-1.095.5-.866 3.397 1.96z"/>
        <path id="l" d="M32 0h1v9h-1z"/>
    </defs>
    <g fill="none" fill-rule="evenodd">
        <path fill="#620A08" d="M101 39v31a4 4 0 0 1-4 4H72a4 4 0 0 1-4-4V43H25a4 4 0 0 1-4-4V22a4 4 0 0 1 4-4h72a4 4 0 0 1 4 4v17z"/>
        <text fill="#333" font-family="Roboto-Black, Roboto" font-size="9" font-weight="700" transform="translate(0 -1)">
            <tspan x=".499" y="35">A”</tspan>
        </text>
        <g transform="rotate(90 0 18)">
            <use fill="#D8D8D8" xlink:href="#a"/>
            <path stroke="#979797" d="M.5.5h1v8h-1z"/>
        </g>
        <g transform="rotate(90 0 18)">
            <use fill="#D8D8D8" xlink:href="#b"/>
            <path stroke="#979797" d="M23.995 4.463H24v-.5h-.5v1h.496L24 4.96v-.003l-.249-.431h-.001l-.25.434v.131l.068.118.428-.247H24V4.96l.001-.001L24 4.958v-.495h-.005zm0 0h-.133l-.866.5.866-.5h-.001.134zm-1 .5l-1.697.98 1.698-.98zm-1.697.98l-.949.548.683.183-.5-.866-.183.683.949-.548zm2.563-1.48h-.933.932l-.866-.5.866.5zm-21.785 0h-.929l.866.5-.866-.5h-.004.933zm1.634 1.48l.947.546-.183-.683-.5.866.683-.183-.947-.546zm-2.567-1.48h-.14.136l.866-.5-.866.5h.004zm-.14 0H1v.5h.5v-1H1v.5h.002zM3.704 2.98l.95-.548-.683-.183.5.866.183-.683-.95.548zm19.289.982l-2.647-1.528.183.683.5-.866-.683.183 2.647 1.528z"/>
        </g>
        <g transform="rotate(90 0 18)">
            <use fill="#D8D8D8" xlink:href="#c"/>
            <path stroke="#979797" d="M24.5.5h1v8h-1z"/>
        </g>
        <text fill="#333" font-family="Roboto-Black, Roboto" font-size="9" font-weight="700" transform="translate(0 -1)">
            <tspan x="47.611" y="62">C”</tspan>
        </text>
        <g transform="rotate(90 11.5 53.5)">
            <use fill="#D8D8D8" xlink:href="#d"/>
            <path stroke="#979797" d="M.5.5h1v8h-1z"/>
        </g>
        <g transform="rotate(90 11.5 53.5)">
            <use fill="#D8D8D8" xlink:href="#e"/>
            <path stroke="#979797" d="M30.995 4.463H31v-.5h-.5v1h.496L31 4.96v-.003l-.249-.431h-.001l-.25.434v.131l.068.118.428-.247H31V4.96l.001-.001L31 4.958v-.495h-.005zm0 0h-.133l-.866.5.866-.5h-.001.134zm-1 .5l-1.697.98 1.698-.98zm-1.697.98l-.949.548.683.183-.5-.866-.183.683.949-.548zm2.563-1.48h-.933.932l-.866-.5.866.5zm-28.785 0h-.929l.866.5-.866-.5h-.004.933zm1.634 1.48l.947.546-.183-.683-.5.866.683-.183-.947-.546zm-2.567-1.48h-.14.136l.866-.5-.866.5h.004zm-.14 0H1v.5h.5v-1H1v.5h.002zM3.704 2.98l.95-.548-.683-.183.5.866.183-.683-.95.548zm26.289.982l-2.647-1.528.183.683.5-.866-.683.183 2.647 1.528z"/>
        </g>
        <g transform="rotate(90 11.5 53.5)">
            <use fill="#D8D8D8" xlink:href="#f"/>
            <path stroke="#979797" d="M31.5.5h1v8h-1z"/>
        </g>
        <text fill="#333" font-family="Roboto-Black, Roboto" font-size="9" font-weight="700" transform="translate(0 -1)">
            <tspan x="56.162" y="8">B”</tspan>
        </text>
        <text fill="#333" font-family="Roboto-Black, Roboto" font-size="9" font-weight="700" transform="translate(0 -1)">
            <tspan x="81.155" y="93">D”</tspan>
        </text>
        <g>
            <g transform="translate(21 6)">
                <use fill="#D8D8D8" xlink:href="#g"/>
                <path stroke="#979797" d="M.5.5h1v8h-1z"/>
            </g>
            <g transform="translate(21 6)">
                <use fill="#D8D8D8" xlink:href="#h"/>
                <path stroke="#979797" d="M78.5 4.674v.289h.496l.003-.002-.249-.431-.002.001-.248.43v.131l.068.118.428-.247H79l-.001-.002.002-.001-.25-.433h-.001l-.002.004-.248.143zm-2.717 1.567l-.433.25.682.183-.25-.433zm0 0l-.25-.433-.184.683.433-.25zM78.5 4.67l.362-.208h-.001H79v-.5h-.5v.709zm.36-.208h-.932.932l-.866-.5.866.5zM3.71 5.943l.947.546-.183-.683-.5.866.683-.183-.947-.546zm-2.567-1.48H1v.5h.5v-.709l-.361.209h.004zm.357-.211v-.29l-.25.434.25-.144zm2.722-1.57l.433-.249-.683-.183.25.433zm0 .001l.25.433.183-.683-.433.25zm73.772 1.28l-2.647-1.528.183.683.5-.866-.683.183 2.647 1.528z"/>
            </g>
            <g transform="translate(21 6)">
                <use fill="#D8D8D8" xlink:href="#i"/>
                <path stroke="#979797" d="M79.5.5h1v8h-1z"/>
            </g>
        </g>
        <g>
            <g transform="translate(68 77)">
                <use fill="#D8D8D8" xlink:href="#j"/>
                <path stroke="#979797" d="M.5.5h1v8h-1z"/>
            </g>
            <g transform="translate(68 77)">
                <use fill="#D8D8D8" xlink:href="#k"/>
                <path stroke="#979797" d="M31.995 4.463H32v-.5h-.5v1h.496L32 4.96v-.003l-.249-.431h-.001l-.25.434v.131l.068.118.428-.247H32V4.96l.001-.001L32 4.958v-.495h-.005zm0 0h-.133l-.866.5.866-.5h-.001.134zm-1 .5l-1.697.98 1.698-.98zm-1.697.98l-.949.548.683.183-.5-.866-.183.683.949-.548zm2.563-1.48h-.933.932l-.866-.5.866.5zM3.71 5.943l.946.546-.183-.683-.5.866.683-.183-.947-.546zm-2.709-1.48H1v.5h.5v-1H1v.5h.002zM3.705 2.98l.95-.548-.683-.183.5.866.183-.683-.95.548zm27.289.982l-2.647-1.528.183.683.5-.866-.683.183 2.647 1.528z"/>
            </g>
            <g transform="translate(68 77)">
                <use fill="#D8D8D8" xlink:href="#l"/>
                <path stroke="#979797" d="M32.5.5h1v8h-1z"/>
            </g>
        </g>
    </g>
</svg>
