<svg xmlns="http://www.w3.org/2000/svg" xmlns:xlink="http://www.w3.org/1999/xlink" width="95" height="92" viewBox="0 0 95 92">
    <defs>
        <path id="a" d="M0 0h1v9H0z"/>
        <path id="b" d="M19.994 3.963H20v.995l.001.002H20v.003h-.004l-3.397 1.96-.5-.865 1.897-1.095H3.013l1.894 1.093-.5.866-3.394-1.96H1v-1h.005L4.405 2l.5.866-1.9 1.097h14.989l-1.897-1.095.5-.866 3.397 1.96z"/>
        <path id="c" d="M20 0h1v9h-1z"/>
        <path id="d" d="M0 0h1v7H0z"/>
        <path id="e" d="M24.994 3.963H25v.995l.001.002H25v.003h-.004l-3.397 1.96-.5-.865 1.897-1.095H3.013l1.894 1.093-.5.866-3.394-1.96H1v-1h.005L4.405 2l.5.866-1.9 1.097h19.989l-1.897-1.095.5-.866 3.397 1.96z"/>
        <path id="f" d="M25 0h1v9h-1z"/>
        <path id="g" d="M0 0h1v9H0z"/>
        <path id="h" d="M54.02 4.001h.39v1h-.387l-3.45 1.992-.5-.866 1.95-1.126H2.985l1.948 1.125-.5.866L.985 5H.59v-1h.387L4.43 2.007l.5.866L2.977 4H52.02l-1.95-1.126.5-.866L54.02 4z"/>
        <path id="i" d="M54 0h1v9h-1z"/>
        <path id="j" d="M0 0h1v9H0z"/>
        <path id="k" d="M54.994 3.963H55v.995l.001.002H55v.003l-3.4 1.96-.5-.865 1.896-1.095H3.013l1.894 1.093-.5.866-3.394-1.96H1v-1L4.405 2l.5.866-1.9 1.097h49.989l-1.897-1.095.5-.866 3.397 1.96z"/>
        <path id="l" d="M55 0h1v9h-1z"/>
        <path id="m" d="M0 0h1v9H0z"/>
        <path id="n" d="M19.994 3.963H20v.995l.001.002H20v.003h-.004l-3.397 1.96-.5-.865 1.897-1.095H3.013l1.894 1.093-.5.866-3.394-1.96H1v-1h.005L4.405 2l.5.866-1.9 1.097h14.989l-1.897-1.095.5-.866 3.397 1.96z"/>
        <path id="o" d="M20 0h1v9h-1z"/>
        <path id="p" d="M0 2h1v7H0z"/>
        <path id="q" d="M24.994 3.963H25v.995l.001.002H25v.003h-.004l-3.397 1.96-.5-.865 1.897-1.095H3.013l1.894 1.093-.5.866-3.394-1.96H1v-1h.005L4.405 2l.5.866-1.9 1.097h19.989l-1.897-1.095.5-.866 3.397 1.96z"/>
        <path id="r" d="M25 0h1v9h-1z"/>
    </defs>
    <g fill="none" fill-rule="evenodd">
        <path fill="#620A08" d="M48.842 39.333l-8.238 8.238v22.262a4 4 0 0 1-4 4H23.938a4 4 0 0 1-4-4v-47c0-.24.021-.477.062-.706V22a4 4 0 0 1 4-4h47a4 4 0 0 1 4 4v13.333a4 4 0 0 1-4 4H48.842z"/>
        <g transform="rotate(-40 61.09 -12.843)">
            <ellipse cx="11.454" cy="7.717" fill="#D8D8D8" rx="11.454" ry="7.717"/>
            <text fill="#333" font-family="Roboto-Regular, Roboto" font-size="7">
                <tspan x="4.147" y="10.149">Sink</tspan>
            </text>
        </g>
        <path stroke="#979797" stroke-dasharray="3" stroke-linecap="square" d="M49 38.667V17.333M19 48h21"/>
        <text fill="#333" font-family="Roboto-Black, Roboto" font-size="9" font-weight="700" transform="translate(0 -1)">
            <tspan x="25.999" y="93">A”</tspan>
        </text>
        <g transform="translate(20 77)">
            <use fill="#D8D8D8" xlink:href="#a"/>
            <path stroke="#979797" d="M.5.5h1v8h-1z"/>
        </g>
        <g transform="translate(20 77)">
            <use fill="#D8D8D8" xlink:href="#b"/>
            <path stroke="#979797" d="M19.995 4.463H20v-.5h-.5v1h.496L20 4.96v-.003l-.249-.431h-.001l-.25.434v.131l.068.118.428-.247H20V4.96l.001-.001L20 4.958v-.495h-.005zm0 0h-.133l-.866.5.866-.5h-.001.134zm-1 .5l-1.697.98 1.698-.98zm-1.697.98l-.949.548.683.183-.5-.866-.183.683.949-.548zm2.563-1.48h-.933.932l-.866-.5.866.5zM3.71 5.943l.946.546-.183-.683-.5.866.683-.183-.947-.546zm-2.709-1.48H1v.5h.5v-1H1v.5h.002zM3.705 2.98l.95-.548-.683-.183.5.866.183-.683-.95.548zm15.289.982l-2.647-1.528.183.683.5-.866-.683.183 2.647 1.528z"/>
        </g>
        <g transform="translate(20 77)">
            <use fill="#D8D8D8" xlink:href="#c"/>
            <path stroke="#979797" d="M20.5.5h1v8h-1z"/>
        </g>
        <text fill="#333" font-family="Roboto-Black, Roboto" font-size="9" font-weight="700" transform="translate(0 -1)">
            <tspan x="58.046" y="57">E”</tspan>
        </text>
        <g transform="translate(49 42)">
            <use fill="#D8D8D8" xlink:href="#d"/>
            <path stroke="#979797" d="M.5.5h1v6h-1z"/>
        </g>
        <g transform="translate(49 42)">
            <use fill="#D8D8D8" xlink:href="#e"/>
            <path stroke="#979797" d="M24.995 4.463H25v-.5h-.5v1h.496L25 4.96v-.003l-.249-.431h-.001l-.25.434v.131l.068.118.428-.247H25V4.96l.001-.001L25 4.958v-.495h-.005zm0 0h-.133l-.866.5.866-.5h-.001.134zm-1 .5l-1.697.98 1.698-.98zm-1.697.98l-.949.548.683.183-.5-.866-.183.683.949-.548zm2.563-1.48h-.933.932l-.866-.5.866.5zM3.71 5.943l.946.546-.183-.683-.5.866.683-.183-.947-.546zm-2.709-1.48H1v.5h.5v-1H1v.5h.002zM3.705 2.98l.95-.548-.683-.183.5.866.183-.683-.95.548zm20.289.982l-2.647-1.528.183.683.5-.866-.683.183 2.647 1.528z"/>
        </g>
        <g transform="translate(49 42)">
            <use fill="#D8D8D8" xlink:href="#f"/>
            <path stroke="#979797" d="M25.5.5h1v8h-1z"/>
        </g>
        <text fill="#333" font-family="Roboto-Black, Roboto" font-size="9" font-weight="700" transform="translate(0 -1)">
            <tspan x="43.155" y="8">D”</tspan>
        </text>
        <g>
            <g transform="translate(20 6)">
                <use fill="#D8D8D8" xlink:href="#g"/>
                <path stroke="#979797" d="M.5.5h1v8h-1z"/>
            </g>
            <g transform="translate(20 6)">
                <use fill="#D8D8D8" xlink:href="#h"/>
                <path stroke="#979797" d="M54.41 5.001v-1h-.5v.5h-.023l-3.134-1.81.25-.432-.683.183.183.683.25-.433L53.887 4.5H1.11L4.248 2.69l.25.433.183-.683-.683-.183.25.433L1.111 4.5H1.09v-.5h-.5v1h.5v-.5h.03l3.13 1.808-.25.433.683-.183-.183-.683-.25.433L1.12 4.5h52.769l-3.134 1.81-.25-.434-.183.683.683.183-.25-.433 3.134-1.809h.02v.5h.5zm-3.655 1.31l-.433.25.433-.25z"/>
            </g>
            <g transform="translate(20 6)">
                <use fill="#D8D8D8" xlink:href="#i"/>
                <path stroke="#979797" d="M54.5.5h1v8h-1z"/>
            </g>
        </g>
        <text fill="#333" font-family="Roboto-Black, Roboto" font-size="9" font-weight="700" transform="translate(0 -1)">
            <tspan x=".111" y="50">C”</tspan>
        </text>
        <text fill="#333" font-family="Roboto-Black, Roboto" font-size="9" font-weight="700" transform="translate(0 -1)">
            <tspan x="86.103" y="33">F”</tspan>
        </text>
        <text fill="#333" font-family="Roboto-Black, Roboto" font-size="9" font-weight="700" transform="translate(0 -1)">
            <tspan x="50.662" y="65">B”</tspan>
        </text>
        <g>
            <g transform="rotate(90 -.5 17.5)">
                <use fill="#D8D8D8" xlink:href="#j"/>
                <path stroke="#979797" d="M.5 4.5V9l.5-.5H0l.5.5V4.5zm0 0V0L0 .5h1L.5 0v4.5z"/>
            </g>
            <g transform="rotate(90 -.5 17.5)">
                <use fill="#D8D8D8" xlink:href="#k"/>
                <path stroke="#979797" d="M54.5 4.674v.289h.496l.003-.002-.249-.431-.002.001-.248.43v.131l.068.118.428-.247H55l-.001-.002.002-.001-.25-.433h-.001l-.002.004-.248.143zm-2.717 1.567l-.433.25.682.183-.25-.433zm0 0l-.25-.433-.184.683.433-.25zM54.5 4.67l.362-.208h-.001H55v-.5h-.5v.709zm.36-.208h-.932.932l-.866-.5.866.5zm-52.784 0h-.929l.058.033-.058-.033h-.004.933zm-.87.033l.807.467-.808-.467zm.807.467l1.697.98-1.697-.98zm1.697.98l.947.546-.183-.683-.5.866.683-.183-.947-.546zm-2.567-1.48H1v.5h.5v-.709l-.361.209h.004zm.357-.211v-.29l-.25.434.25-.144zm2.722-1.57l.433-.249-.683-.183.25.433zm0 .001l.25.433.183-.683-.433.25zm49.772 1.28l-2.647-1.528.183.683.5-.866-.683.183 2.647 1.528z"/>
            </g>
            <g transform="rotate(90 -.5 17.5)">
                <use fill="#D8D8D8" xlink:href="#l"/>
                <path stroke="#979797" d="M55.5 4.5V9l.5-.5h-1l.5.5V4.5zm0 0V0l-.5.5h1l-.5-.5v4.5z"/>
            </g>
        </g>
        <g>
            <g transform="rotate(90 34.5 52.5)">
                <use fill="#D8D8D8" xlink:href="#m"/>
                <path stroke="#979797" d="M.5 4.5V9l.5-.5H0l.5.5V4.5zm0 0V0L0 .5h1L.5 0v4.5z"/>
            </g>
            <g transform="rotate(90 34.5 52.5)">
                <use fill="#D8D8D8" xlink:href="#n"/>
                <path stroke="#979797" d="M19.995 4.463H20v-.5h-.5v1h.496L20 4.96v-.003l-.249-.431h-.001l-.25.434v.131l.068.118.428-.247H20V4.96l.001-.001L20 4.958v-.495h-.005zm0 0h-.133l-.866.5.866-.5h-.001.134zm-1 .5l-1.697.98 1.698-.98zm-1.697.98l-.949.548.683.183-.5-.866-.183.683.949-.548zm2.563-1.48h-.933.932l-.866-.5.866.5zm-17.785 0h-.929l.058.033-.058-.033h-.004.933zm-.87.033l.807.467-.808-.467zm.807.467l1.697.98-1.697-.98zm1.697.98l.947.546-.183-.683-.5.866.683-.183-.947-.546zm-2.708-1.48H1v.5h.5v-1H1v.5h.002zM3.705 2.98l.95-.548-.683-.183.5.866.183-.683-.95.548zm15.289.982l-2.647-1.528.183.683.5-.866-.683.183 2.647 1.528z"/>
            </g>
            <g transform="rotate(90 34.5 52.5)">
                <use fill="#D8D8D8" xlink:href="#o"/>
                <path stroke="#979797" d="M20.5.5h1v8h-1z"/>
            </g>
        </g>
        <g>
            <g transform="rotate(90 2 50)">
                <use fill="#D8D8D8" xlink:href="#p"/>
                <path stroke="#979797" d="M.5 5.5V9l.5-.5H0l.5.5V5.5zm0 0V2l-.5.5h1L.5 2v3.5z"/>
            </g>
            <g transform="rotate(90 2 50)">
                <use fill="#D8D8D8" xlink:href="#q"/>
                <path stroke="#979797" d="M24.995 4.463H25v-.5h-.5v1h.496L25 4.96v-.003l-.249-.431h-.001l-.25.434v.131l.068.118.428-.247H25V4.96l.001-.001L25 4.958v-.495h-.005zm0 0h-.133l-.866.5.866-.5h-.001.134zm-1 .5l-1.697.98 1.698-.98zm-1.697.98l-.949.548.683.183-.5-.866-.183.683.949-.548zm2.563-1.48h-.933.932l-.866-.5.866.5zm-22.785 0h-.929l.058.033-.058-.033h-.004.933zm-.87.033l.807.467-.808-.467zm.807.467l1.697.98-1.697-.98zm1.697.98l.947.546-.183-.683-.5.866.683-.183-.947-.546zm-2.708-1.48H1v.5h.5v-1H1v.5h.002zM3.705 2.98l.95-.548-.683-.183.5.866.183-.683-.95.548zm20.289.982l-2.647-1.528.183.683.5-.866-.683.183 2.647 1.528z"/>
            </g>
            <g transform="rotate(90 2 50)">
                <use fill="#D8D8D8" xlink:href="#r"/>
                <path stroke="#979797" d="M25.5.5h1v8h-1z"/>
            </g>
        </g>
    </g>
</svg>
