<svg xmlns="http://www.w3.org/2000/svg" xmlns:xlink="http://www.w3.org/1999/xlink" width="112" height="92" viewBox="0 0 112 92">
    <defs>
        <path id="a" d="M.123.93h1v9h-1z"/>
        <path id="b" d="M28.063 5.205h.006V6.2l.001.002v.003h-.005L24.67 8.166l-.5-.866 1.936-1.118-22.928-.265 1.853 1.07-.5.866-3.394-1.96h-.013v-1h.004l3.4-1.962.5.866-1.939 1.12 22.934.264-1.855-1.07.5-.867 3.396 1.961z"/>
        <path id="c" d="M28.07 1.242h1v9h-1z"/>
        <path id="d" d="M.9 0h1v9h-1z"/>
        <path id="e" d="M41.342 4.063h.007v1h-.005l-3.396 1.961-.5-.866 1.905-1.1-35.431-.09 1.885 1.088-.5.866-3.394-1.959h-.014v-1h.005L5.304 2l.5.866-1.908 1.102 35.437.09-1.887-1.09.5-.866 3.396 1.961z"/>
        <path id="f" d="M41.349.1h1v9h-1z"/>
        <path id="g" d="M0 0h1v9H0z"/>
        <path id="h" d="M24.994 3.963H25v.995l.001.002H25v.003h-.004l-3.397 1.96-.5-.865 1.897-1.095H3.013l1.894 1.093-.5.866-3.394-1.96H1v-1h.005L4.405 2l.5.866-1.9 1.097h19.989l-1.897-1.095.5-.866 3.397 1.96z"/>
        <path id="i" d="M25 0h1v9h-1z"/>
        <path id="j" d="M0 0h1v9H0z"/>
        <path id="k" d="M12.994 3.963H13v.995l.001.002H13v.003h-.004l-3.397 1.96-.5-.865 1.897-1.095H3.013l1.894 1.093-.5.866-3.394-1.96H1v-1h.005L4.405 2l.5.866-1.9 1.097h7.989L9.097 2.868l.5-.866 3.397 1.96z"/>
        <path id="l" d="M13 0h1v9h-1z"/>
        <path id="m" d="M.512.084h1v9h-1z"/>
        <path id="n" d="M12.994 3.963H13v.995l.001.002H13v.003h-.004l-3.397 1.96-.5-.865 1.871-1.08-7.47.055L5.419 6.14l-.5.866-3.394-1.96h-.013v-1h.005l3.4-1.963.5.866-1.874 1.082 7.476-.055-1.922-1.109.5-.866 3.397 1.961z"/>
        <path id="o" d="M13 0h1v9h-1z"/>
        <path id="p" d="M0 0h1v9H0z"/>
        <path id="q" d="M12.994 3.963H13v.995l.001.002H13v.003h-.004l-3.397 1.96-.5-.865 1.897-1.095H3.013l1.894 1.093-.5.866-3.394-1.96H1v-1h.005L4.405 2l.5.866-1.9 1.097h7.989L9.097 2.868l.5-.866 3.397 1.96z"/>
        <path id="r" d="M13 0h1v9h-1z"/>
        <path id="s" d="M.14 1.123h1v9h-1z"/>
        <path id="t" d="M13.031 4.67h.006v.994l.001.002v.003h-.005L9.637 7.63l-.5-.866 1.767-1.02-7.865.275 2.009 1.16-.5.866-3.395-1.96h-.012v-1h.005l3.4-1.962.5.866L3.274 5.01l7.87-.276-2.01-1.16.5-.867L13.03 4.67z"/>
        <path id="u" d="M13.037.706h1v9h-1z"/>
        <path id="v" d="M0 0h1v9H0z"/>
        <path id="w" d="M64.61 4h.386v1.002h-.384L61.152 7l-.501-.868 1.956-1.13H3.403L5.356 6.13 4.854 7 1.397 5.002h-.393V4h.385l3.463-2 .501.868L3.394 4h59.21L60.65 2.87l.501-.868L64.61 4z"/>
        <path id="x" d="M64 0h1v9h-1z"/>
    </defs>
    <g fill="none" fill-rule="evenodd">
        <path fill="#620A08" d="M95.773 48.808c.282.753.34 1.598.116 2.434L90.219 72.4a4 4 0 0 1-4.898 2.829l-5.29-1.418a4 4 0 0 1-2.829-4.899l4.47-16.684L61.524 32.08H13.6v20.825a4 4 0 0 1-4 4H4.124a4 4 0 0 1-4-4V21.893a4 4 0 0 1 4-4h59.382c.48 0 .94.085 1.367.24a3.989 3.989 0 0 1 2.933 1.17L94.603 46.1c.75.75 1.14 1.725 1.17 2.708z"/>
        <text fill="#333" font-family="Roboto-Black, Roboto" font-size="9" font-weight="700" transform="translate(0 -1)">
            <tspan x="102.497" y="70">G”</tspan>
        </text>
        <g transform="rotate(105 34.743 67.266)">
            <use fill="#D8D8D8" xlink:href="#a"/>
            <path stroke="#979797" d="M.623 5.43v4.5l.5-.5h-1l.5.5v-4.5zm0 0V.93l-.5.5h1l-.5-.5v4.5z"/>
        </g>
        <g transform="rotate(105 34.743 67.266)">
            <use fill="#D8D8D8" xlink:href="#b"/>
            <path stroke="#979797" d="M27.87 5.67l-.828-.477.827.478zm0 0l.056.034-.357-.005.365.005-.849.49.85-.49.129.001-.138-.001-.057-.033zM1.622 5.4l-.364-.005.059-.034-.06.034-.13-.001.145.001.884.51-.884-.51.35.004zm-.305-.04l.79-.455-.79.456zm.839.546l1.696.98-1.696-.98z"/>
        </g>
        <g transform="rotate(105 34.743 67.266)">
            <use fill="#D8D8D8" xlink:href="#c"/>
            <path stroke="#979797" d="M28.57 5.742v4.5l.5-.5h-1l.5.5v-4.5zm0 0v-4.5l-.5.5h1l-.5-.5v4.5z"/>
        </g>
        <text fill="#333" font-family="Roboto-Black, Roboto" font-size="9" font-weight="700" transform="translate(0 -1)">
            <tspan x="87.546" y="26">E”</tspan>
        </text>
        <g transform="scale(-1 1) rotate(-45 -4.672 145.817)">
            <use fill="#D8D8D8" xlink:href="#d"/>
            <path stroke="#979797" d="M1.4 4.5V9l.5-.5h-1l.5.5V4.5zm0 0V0L.9.5h1L1.4 0v4.5z"/>
        </g>
        <g transform="scale(-1 1) rotate(-45 -4.672 145.817)">
            <use fill="#D8D8D8" xlink:href="#e"/>
            <path stroke="#979797" d="M41.15 4.53l-.812-.47.812.47zm-39.054-.1l.804-.465-.804.465zm.804-.465l1.7-.981-1.7.981zm.017 1l1.697.98-1.697-.98z"/>
        </g>
        <g transform="scale(-1 1) rotate(-45 -4.672 145.817)">
            <use fill="#D8D8D8" xlink:href="#f"/>
            <path stroke="#979797" d="M41.849 4.6v4.5l.5-.5h-1l.5.5V4.6zm0 0V.1l-.5.5h1l-.5-.5v4.5z"/>
        </g>
        <text fill="#333" font-family="Roboto-Black, Roboto" font-size="9" font-weight="700" transform="translate(0 -1)">
            <tspan x="23.662" y="48">B”</tspan>
        </text>
        <g transform="rotate(90 -3 28)">
            <use fill="#D8D8D8" xlink:href="#g"/>
            <path stroke="#979797" d="M.5 4.5V9l.5-.5H0l.5.5V4.5zm0 0V0L0 .5h1L.5 0v4.5z"/>
        </g>
        <g transform="rotate(90 -3 28)">
            <use fill="#D8D8D8" xlink:href="#h"/>
            <path stroke="#979797" d="M24.995 4.463H25v-.5h-.5v1h.496L25 4.96v-.003l-.249-.431h-.001l-.25.434v.131l.068.118.428-.247H25V4.96l.001-.001L25 4.958v-.495h-.005zm0 0h-.133l-.866.5.866-.5h-.001.134zm-1 .5l-1.697.98 1.698-.98zm-1.697.98l-.949.548.683.183-.5-.866-.183.683.949-.548zm2.563-1.48h-.933.932l-.866-.5.866.5zm-22.785 0h-.929l.058.033-.058-.033h-.004.933zm-.87.033l.807.467-.808-.467zm.807.467l1.697.98-1.697-.98zm1.697.98l.947.546-.183-.683-.5.866.683-.183-.947-.546zm-2.708-1.48H1v.5h.5v-1H1v.5h.002zM3.705 2.98l.95-.548-.683-.183.5.866.183-.683-.95.548zm20.289.982l-2.647-1.528.183.683.5-.866-.683.183 2.647 1.528z"/>
        </g>
        <g transform="rotate(90 -3 28)">
            <use fill="#D8D8D8" xlink:href="#i"/>
            <path stroke="#979797" d="M25.5.5h1v8h-1z"/>
        </g>
        <text fill="#FFF" font-family="Roboto-Regular, Roboto" font-size="7" transform="translate(0 -1)">
            <tspan x="13.637" y="28">Bar Top</tspan>
        </text>
        <g transform="rotate(90 19.5 37.5)">
            <use fill="#D8D8D8" xlink:href="#j"/>
            <path stroke="#979797" d="M.5 4.5V9l.5-.5H0l.5.5V4.5zm0 0V0L0 .5h1L.5 0v4.5z"/>
        </g>
        <g transform="rotate(90 19.5 37.5)">
            <use fill="#D8D8D8" xlink:href="#k"/>
            <path stroke="#979797" d="M12.995 4.463H13v-.5h-.5v1h.496L13 4.96v-.003l-.249-.431h-.001l-.25.434v.131l.068.118.428-.247H13V4.96l.001-.001L13 4.958v-.495h-.005zm0 0h-.133l-.866.5.866-.5h-.001.134zm-1 .5l-1.697.98 1.698-.98zm-1.697.98l-.949.548.683.183-.5-.866-.183.683.949-.548zm2.563-1.48h-.933.932l-.866-.5.866.5zm-10.785 0h-.929l.866.5-.866-.5h-.004.933zm1.634 1.48l.947.546-.183-.683-.5.866.683-.183-.947-.546zm-2.567-1.48h-.14.136l.866-.5-.866.5h.004zm-.14 0H1v.5h.5v-1H1v.5h.002zM3.704 2.98l.95-.548-.683-.183.5.866.183-.683-.95.548zm8.289.982L9.347 2.435l.183.683.5-.866-.683.183 2.647 1.528z"/>
        </g>
        <g transform="rotate(90 19.5 37.5)">
            <use fill="#D8D8D8" xlink:href="#l"/>
            <path stroke="#979797" d="M13.5 4.5V9l.5-.5h-1l.5.5V4.5zm0 0V0l-.5.5h1l-.5-.5v4.5z"/>
        </g>
        <g transform="rotate(135 34.204 33.37)">
            <use fill="#D8D8D8" xlink:href="#m"/>
            <path stroke="#979797" d="M1.012 4.584v4.5l.5-.5h-1l.5.5v-4.5zm0 0v-4.5l-.5.5h1l-.5-.5v4.5z"/>
        </g>
        <g transform="rotate(135 34.204 33.37)">
            <use fill="#D8D8D8" xlink:href="#n"/>
            <path stroke="#979797" d="M12.996 4.463l-.135.001-.059-.034.06.034-.362.003.36-.003-.877.506.877-.506.136-.001zm-.194-.033l-.796-.46.796.46zm-10.79.114l-.36.002.058-.033-.058.033-.137.001h.142l.855.493-.855-.494.355-.002zm-.302-.03l.82-.474-.82.473zm.82-.474l1.7-.982-1.7.982zm-.018 1l1.697.98-1.697-.98z"/>
        </g>
        <g transform="rotate(135 34.204 33.37)">
            <use fill="#D8D8D8" xlink:href="#o"/>
            <path stroke="#979797" d="M13.5 4.5V9l.5-.5h-1l.5.5V4.5zm0 0V0l-.5.5h1l-.5-.5v4.5z"/>
        </g>
        <text fill="#FFF" font-family="Roboto-Black, Roboto" font-size="9" font-weight="700" transform="translate(0 -1)">
            <tspan x="57.155" y="30">D”</tspan>
        </text>
        <text fill="#FFF" font-family="Roboto-Black, Roboto" font-size="9" font-weight="700" transform="translate(0 -1)">
            <tspan x="75.603" y="45">F”</tspan>
        </text>
        <text fill="#333" font-family="Roboto-Black, Roboto" font-size="9" font-weight="700" transform="translate(0 -1)">
            <tspan x="1.999" y="76">A”</tspan>
        </text>
        <g>
            <g transform="translate(0 60)">
                <use fill="#D8D8D8" xlink:href="#p"/>
                <path stroke="#979797" d="M.5.5h1v8h-1z"/>
            </g>
            <g transform="translate(0 60)">
                <use fill="#D8D8D8" xlink:href="#q"/>
                <path stroke="#979797" d="M12.995 4.463H13v-.5h-.5v1h.496L13 4.96v-.003l-.249-.431h-.001l-.25.434v.131l.068.118.428-.247H13V4.96l.001-.001L13 4.958v-.495h-.005zm-1 .5l-1.697.98 1.698-.98zm-1.697.98l-.949.548.683.183-.5-.866-.183.683.949-.548zm-6.588 0l.947.546-.183-.683-.5.866.683-.183-.947-.546zm-2.708-1.48H1v.5h.5v-1H1v.5h.002zM3.705 2.98l.95-.548-.683-.183.5.866.183-.683-.95.548zm8.289.982L9.347 2.435l.183.683.5-.866-.683.183 2.647 1.528z"/>
            </g>
            <g transform="translate(0 60)">
                <use fill="#D8D8D8" xlink:href="#r"/>
                <path stroke="#979797" d="M13.5.5h1v8h-1z"/>
            </g>
        </g>
        <text fill="#333" font-family="Roboto-Black, Roboto" font-size="9" font-weight="700" transform="translate(0 -1)">
            <tspan x="75.402" y="93">H”</tspan>
        </text>
        <g>
            <g transform="scale(1 -1) rotate(-15 -284.924 -319.342)">
                <use fill="#D8D8D8" xlink:href="#s"/>
                <path stroke="#979797" d="M.64 5.623v4.5l.5-.5h-1l.5.5v-4.5zm0 0v-4.5l-.5.5h1l-.5-.5v4.5z"/>
            </g>
            <g transform="scale(1 -1) rotate(-15 -284.924 -319.342)">
                <use fill="#D8D8D8" xlink:href="#t"/>
                <path stroke="#979797" d="M13.02 5.17l-.115.004-.062-.036.062.036-.368.013.354-.013-.923.533.923-.533.129-.004zm-.177-.032l-.755-.436.755.436zm-11.202.43l-.353.013.054-.032-.054.032-.13.004.12-.005.818.472-.817-.472.362-.012zm-.3-.019l.87-.5-.87.5zm.87-.5l1.7-.982-1.7.981zm-.115 1.003l1.697.98-1.697-.98z"/>
            </g>
            <g transform="scale(1 -1) rotate(-15 -284.924 -319.342)">
                <use fill="#D8D8D8" xlink:href="#u"/>
                <path stroke="#979797" d="M13.537 5.206v4.5l.5-.5h-1l.5.5v-4.5zm0 0v-4.5l-.5.5h1l-.5-.5v4.5z"/>
            </g>
        </g>
        <text fill="#333" font-family="Roboto-Black, Roboto" font-size="9" font-weight="700" transform="translate(0 -1)">
            <tspan x="28.111" y="8">C”</tspan>
        </text>
        <g>
            <g transform="translate(0 6)">
                <use fill="#D8D8D8" xlink:href="#v"/>
                <path stroke="#979797" d="M.5.5h1v8h-1z"/>
            </g>
            <g transform="translate(0 6)">
                <use fill="#D8D8D8" xlink:href="#w"/>
                <path stroke="#979797" d="M64.496 4.502v.5h.5v-.5h-.5zm-3.16 1.815l-.434.25.683.183-.25-.433zm-.002-.002l-.25-.433-.183.683.433-.25zM4.673 6.313l.433.25-.183-.683-.25.433zm-.002.003l-.25.433.683-.183-.433-.25zM1.504 4.502h-.5v.5h.5v-.5zm0-.002V4h-.5v.5h.5zM4.67 2.683l.433-.25-.683-.183.25.433zm.001.002l.25.433.183-.683-.433.25zm56.662.003l-.433-.25.183.683.25-.433zm.001-.003l.25-.433-.683.183.433.25zM64.496 4.5h.5V4h-.5v.5z"/>
            </g>
            <g transform="translate(0 6)">
                <use fill="#D8D8D8" xlink:href="#x"/>
                <path stroke="#979797" d="M64.5.5h1v8h-1z"/>
            </g>
        </g>
    </g>
</svg>
