<svg xmlns="http://www.w3.org/2000/svg" xmlns:xlink="http://www.w3.org/1999/xlink" width="160" height="87" viewBox="0 0 160 87">
    <defs>
        <path id="a" d="M0 0h1v9H0z"/>
        <path id="b" d="M17.994 3.963H18v.995l.001.002H18v.003h-.004l-3.397 1.96-.5-.865 1.897-1.095H3.013l1.894 1.093-.5.866-3.394-1.96H1v-1h.005L4.405 2l.5.866-1.9 1.097h12.989l-1.897-1.095.5-.866 3.397 1.96z"/>
        <path id="c" d="M18 0h1v9h-1z"/>
        <path id="d" d="M0 0h1v9H0z"/>
        <path id="e" d="M17.92 4.205h.007V5.2l.001.002v.003h-.005l-3.396 1.961-.5-.866 1.945-1.123-12.907-.185 1.842 1.064-.5.866-3.393-1.959H1v-1h.005L4.405 2l.5.866-1.949 1.125 12.914.185-1.845-1.066.5-.866 3.396 1.961z"/>
        <path id="f" d="M17.927.242h1v9h-1z"/>
        <path id="g" d="M.686 0h1v9h-1z"/>
        <path id="h" d="M62.342 4.063h.007v1l-3.401 1.961-.5-.866L60.35 5.06 3.705 4.966l1.888 1.09-.5.866L1.7 4.962h-.014v-1L5.091 2l.5.866-1.906 1.1 56.651.094-1.89-1.092.5-.866 3.396 1.961z"/>
        <path id="i" d="M62.349.1h1v9h-1z"/>
        <path id="j" d="M0 0h1v9H0z"/>
        <path id="k" d="M83 3.963v.995l.001.002H83v.003l-3.4 1.96-.5-.865 1.896-1.095H3.013l1.894 1.093-.5.866-3.394-1.96H1v-1L4.405 2l.5.866-1.9 1.097h77.989l-1.897-1.095.5-.866 3.397 1.96z"/>
        <path id="l" d="M83 0h1v9h-1z"/>
    </defs>
    <g fill="none" fill-rule="evenodd">
        <path fill="#620A08" d="M54.37 19.478c-.35.184-.68.424-.975.72L12.533 61.174a4 4 0 0 0 .004 5.653l7.928 7.928.004.004a4 4 0 0 0 5.657-.008l37.139-37.244h72.252a4 4 0 0 0 4-4V22.297a4 4 0 0 0-4-4H57.21c-1.11 0-2.114.451-2.839 1.181z"/>
        <text fill="#FFF" font-family="Roboto-Regular, Roboto" font-size="7" transform="translate(0 -1)">
            <tspan x="82.637" y="31">Bar Top</tspan>
        </text>
        <text fill="#333" font-family="Roboto-Black, Roboto" font-size="9" font-weight="700" transform="translate(0 -1)">
            <tspan x="150.499" y="32">A”</tspan>
        </text>
        <g transform="rotate(90 66.5 85.5)">
            <use fill="#D8D8D8" xlink:href="#a"/>
            <path stroke="#979797" d="M.5.5h1v8h-1z"/>
        </g>
        <g transform="rotate(90 66.5 85.5)">
            <use fill="#D8D8D8" xlink:href="#b"/>
            <path stroke="#979797" d="M17.995 4.463H18v-.5h-.5v1h.496L18 4.96v-.003l-.249-.431h-.001l-.25.434v.131l.068.118.428-.247H18V4.96l.001-.001L18 4.958v-.495h-.005zm0 0h-.133l-.866.5.866-.5h-.001.134zm-1 .5l-1.697.98 1.698-.98zm-1.697.98l-.949.548.683.183-.5-.866-.183.683.949-.548zm2.563-1.48h-.933.932l-.866-.5.866.5zm-15.785 0h-.929l.866.5-.866-.5h-.004.933zm1.634 1.48l.947.546-.183-.683-.5.866.683-.183-.947-.546zm-2.567-1.48h-.14.136l.866-.5-.866.5h.004zm-.14 0H1v.5h.5v-1H1v.5h.002zM3.704 2.98l.95-.548-.683-.183.5.866.183-.683-.95.548zm13.289.982l-2.647-1.528.183.683.5-.866-.683.183 2.647 1.528z"/>
        </g>
        <g transform="rotate(90 66.5 85.5)">
            <use fill="#D8D8D8" xlink:href="#c"/>
            <path stroke="#979797" d="M18.5.5h1v8h-1z"/>
        </g>
        <text fill="#333" font-family="Roboto-Black, Roboto" font-size="9" font-weight="700" transform="translate(0 -1)">
            <tspan x="1.499" y="87">A”</tspan>
        </text>
        <g transform="scale(1 -1) rotate(-45 -87.84 -37.414)">
            <use fill="#D8D8D8" xlink:href="#d"/>
            <path stroke="#979797" d="M.5.5h1v8h-1z"/>
        </g>
        <g transform="scale(1 -1) rotate(-45 -87.84 -37.414)">
            <use fill="#D8D8D8" xlink:href="#e"/>
            <path stroke="#979797" d="M17.727 4.67l-.832-.48.832.48zm0 0l.056.033-.356-.005.366.005-.846.488.846-.488.127.002-.137-.002-.056-.032zM1.5 4.47l-.365-.005.06-.035-.06.035-.128-.002.144.002.888.513-.888-.513.349.005zm-.305-.04l.786-.453-.786.453zm.786-.453l1.7-.982-1.7.982zm.058 1l1.697.98-1.697-.98z"/>
        </g>
        <g transform="scale(1 -1) rotate(-45 -87.84 -37.414)">
            <use fill="#D8D8D8" xlink:href="#f"/>
            <path stroke="#979797" d="M18.427 4.742v4.5l.5-.5h-1l.5.5v-4.5zm0 0v-4.5l-.5.5h1l-.5-.5v4.5z"/>
        </g>
        <text fill="#333" font-family="Roboto-Black, Roboto" font-size="9" font-weight="700" transform="translate(0 -1)">
            <tspan x="19.162" y="36">B”</tspan>
        </text>
        <g>
            <g transform="rotate(-45 67.82 24.92)">
                <use fill="#D8D8D8" xlink:href="#g"/>
                <path stroke="#979797" d="M1.186 4.5V9l.5-.5h-1l.5.5V4.5zm0 0V0l-.5.5h1l-.5-.5v4.5z"/>
            </g>
            <g transform="rotate(-45 67.82 24.92)">
                <use fill="#D8D8D8" xlink:href="#h"/>
                <path stroke="#979797" d="M61.849 4.562h.359l-.058-.032.058.033h.14v-.5h-.5v.5l-59.662-.1v-.209l-.361.21h.361-.352l.058.033-.058-.034h-.147v.5h.5v-.5l59.662.1v.21l.362-.21h-.362zm0 .212v.29h.495l.004-.003-.25-.431-.002.001-.247.43v.131l.068.118.427-.247h.005l-.001-.002h.002l-.25-.434h-.001l-.003.004-.247.143zM59.13 6.341l-.433.25.683.183-.25-.433zm0 0l-.25-.433-.183.683.433-.25zM1.891 4.497l.812.468-.811-.468zm.812.468l1.696.98-1.696-.98zm1.696.98l.944.544-.183-.683-.5.866.683-.183-.944-.545zM2.186 4.251v-.29l-.25.434.25-.144zm2.722-1.57l.433-.249-.683-.183.25.433zm0 .001l.25.433.183-.683-.433.25zM62.15 4.53L59.64 3.08 62.15 4.53zM59.64 3.08l-.945-.546.183.683.5-.866-.683.183.945.546z"/>
            </g>
            <g transform="rotate(-45 67.82 24.92)">
                <use fill="#D8D8D8" xlink:href="#i"/>
                <path stroke="#979797" d="M62.849 4.6v4.5l.5-.5h-1l.5.5V4.6zm0 0V.1l-.5.5h1l-.5-.5v4.5z"/>
            </g>
        </g>
        <text fill="#333" font-family="Roboto-Black, Roboto" font-size="9" font-weight="700" transform="translate(0 -1)">
            <tspan x="93.111" y="8">C”</tspan>
        </text>
        <g>
            <g transform="translate(56 6)">
                <use fill="#D8D8D8" xlink:href="#j"/>
                <path stroke="#979797" d="M.5.5h1v8h-1z"/>
            </g>
            <g transform="translate(56 6)">
                <use fill="#D8D8D8" xlink:href="#k"/>
                <path stroke="#979797" d="M82.5 4.674v.289h.496l.003-.002-.249-.431-.002.001-.248.43v.131l.068.118.428-.247H83l-.001-.002.002-.001-.25-.433h-.001l-.002.004-.248.143zm-2.717 1.567l-.433.25.682.183-.25-.433zm0 0l-.25-.433-.184.683.433-.25zM82.5 4.67l.362-.208h-.001H83v-.5h-.5v.709zM3.71 5.944l.947.546-.183-.683-.5.866.683-.183-.947-.546zm-2.567-1.48H1v.5h.5v-.709l-.361.209h.004zm.357-.211v-.29l-.25.434.25-.144zm2.722-1.57l.433-.249-.683-.183.25.433zm0 .001l.25.433.183-.683-.433.25zm77.772 1.28l-2.647-1.528.183.683.5-.866-.683.183 2.647 1.528z"/>
            </g>
            <g transform="translate(56 6)">
                <use fill="#D8D8D8" xlink:href="#l"/>
                <path stroke="#979797" d="M83.5.5h1v8h-1z"/>
            </g>
        </g>
    </g>
</svg>
