<svg xmlns="http://www.w3.org/2000/svg" xmlns:xlink="http://www.w3.org/1999/xlink" width="167" height="93" viewBox="0 0 167 93">
    <defs>
        <path id="a" d="M.536.97h1v9h-1z"/>
        <path id="b" d="M39.062 6.205h.007V7.2l.001.002v.003h-.004l-3.397 1.961-.5-.866 2.007-1.159L3.675 6.005l1.768 1.021-.5.866L1.55 5.933h-.014v-1h.005l3.4-1.963.5.866-2.011 1.16 33.508 1.137-1.771-1.023.5-.866 3.395 1.96z"/>
        <path id="c" d="M39.07 2.242h1v9h-1z"/>
        <path id="d" d="M.475.6h1v9h-1z"/>
        <path id="e" d="M46.062 6.205h.007V7.2l.001.002v.003l-3.401 1.961-.5-.866 2.016-1.164-40.56-1.494 1.757 1.014-.5.866-3.393-1.959h-.014v-1h.004L4.88 2.6l.5.866-2.02 1.166 40.567 1.494-1.76-1.016.5-.866 3.396 1.96z"/>
        <path id="f" d="M46.07 2.242h1v9h-1z"/>
        <path id="g" d="M0 0h1v9H0z"/>
        <path id="h" d="M79.61 4h.386v1.002h-.384L76.152 7l-.501-.868 1.956-1.13H3.403L5.356 6.13 4.854 7 1.397 5.002h-.393V4h.385l3.463-2 .501.868L3.394 4h74.21L75.65 2.87l.501-.868L79.61 4z"/>
        <path id="i" d="M79 0h1v9h-1z"/>
        <path id="j" d="M.768 0h1v9h-1z"/>
        <path id="k" d="M21.761 3.963h.007v.995l.001.002h-.001v.003h-.004l-3.397 1.96-.5-.865 1.897-1.095H3.78l1.894 1.093-.5.866-3.394-1.96h-.013v-1h.005L5.173 2l.5.866-1.9 1.097H19.76l-1.896-1.095.5-.866 3.396 1.96z"/>
        <path id="l" d="M21.768 0h1v9h-1z"/>
        <path id="m" d="M.6.265h1v9h-1z"/>
        <path id="n" d="M22.342 4.063h.007v1h-.005l-3.396 1.961-.5-.866 1.868-1.079-16.73.133 1.92 1.11-.5.865-3.393-1.96h-.014v-1h.005l3.4-1.962.5.866-1.872 1.08L20.37 4.08l-1.923-1.11.5-.867 3.396 1.961z"/>
        <path id="o" d="M22.349.1h1v9h-1z"/>
        <path id="p" d="M.6.265h1v9h-1z"/>
        <path id="q" d="M22.342 4.063h.007v1h-.005l-3.396 1.961-.5-.866 1.868-1.079-16.73.133 1.92 1.11-.5.865-3.393-1.96h-.014v-1h.005l3.4-1.962.5.866-1.872 1.08L20.37 4.08l-1.923-1.11.5-.867 3.396 1.961z"/>
        <path id="r" d="M22.349.1h1v9h-1z"/>
    </defs>
    <g fill="none" fill-rule="evenodd">
        <path fill="#620A08" d="M41.965 35.035a3.986 3.986 0 0 1 1.624-.344h77.554l16.134-21.41a4 4 0 0 1 5.602-.788l11.272 8.495a4 4 0 0 1 .788 5.602l-21.465 28.485a3.993 3.993 0 0 1-3.147 1.592c-.334.09-.686.14-1.049.14H51.2L27.17 81.69a4 4 0 0 1-5.655.099L11.36 71.983a4 4 0 0 1-.099-5.656L40.578 35.97c.405-.42.879-.73 1.387-.934z"/>
        <text fill="#333" font-family="Roboto-Black, Roboto" font-size="9" font-weight="700" transform="translate(-1)">
            <tspan x="155.046" y="54">E”</tspan>
        </text>
        <text fill="#333" font-family="Roboto-Black, Roboto" font-size="9" font-weight="700" transform="translate(-1)">
            <tspan x="11.499" y="44">A”</tspan>
        </text>
        <g transform="rotate(126 75.738 58.778)">
            <use fill="#D8D8D8" xlink:href="#a"/>
            <path stroke="#979797" d="M1.036 5.47v4.5l.5-.5h-1l.5.5v-4.5zm0 0V.97l-.5.5h1l-.5-.5v4.5z"/>
        </g>
        <g transform="rotate(126 75.738 58.778)">
            <use fill="#D8D8D8" xlink:href="#b"/>
            <path stroke="#979797" d="M38.867 6.67L38 6.168l.867.5zm0 0l.054.03-.352-.012.37.012-.818.473.818-.473.113.004-.131-.004-.054-.03zM2.036 5.45l-.37-.013.063-.035-.062.035-.114-.003v-.001l.139.005.92.531-.92-.531.344.011v.001zm-.307-.048l.756-.437-.756.437zm.756-.437l1.7-.982-1.7.982zm.127 1.004l1.697.98-1.697-.98z"/>
        </g>
        <g transform="rotate(126 75.738 58.778)">
            <use fill="#D8D8D8" xlink:href="#c"/>
            <path stroke="#979797" d="M39.57 6.742v4.5l.5-.5h-1l.5.5v-4.5zm0 0v-4.5l-.5.5h1l-.5-.5v4.5z"/>
        </g>
        <g transform="rotate(132 12.935 25.646)">
            <use fill="#D8D8D8" xlink:href="#d"/>
            <path stroke="#979797" d="M.975 5.1v4.5l.5-.5h-1l.5.5V5.1zm0 0V.6l-.5.5h1l-.5-.5v4.5z"/>
        </g>
        <g transform="rotate(132 12.935 25.646)">
            <use fill="#D8D8D8" xlink:href="#e"/>
            <path stroke="#979797" d="M45.939 6.7h-.019l-.054-.031.054.031-.35-.013.37.013h-.001zm-.073-.031l-.872-.503.872.503zM1.975 5.08l-.37-.013.062-.036-.062.036-.112-.004v-.001l.138.005.926.535-.926-.535.344.013zm-.308-.05l.752-.434-.752.435zm.752-.434l1.7-.981-1.7.981zm.138 1.006l1.696.979-1.696-.98zm43.012 1.311l-2.717 1.57 2.717-1.568v-.002z"/>
        </g>
        <g transform="rotate(132 12.935 25.646)">
            <use fill="#D8D8D8" xlink:href="#f"/>
            <path stroke="#979797" d="M46.57 6.742v4.5l.5-.5h-1l.5.5v-4.5zm0 0v-4.5l-.5.5h1l-.5-.5v4.5z"/>
        </g>
        <text fill="#333" font-family="Roboto-Black, Roboto" font-size="9" font-weight="700" transform="translate(-1)">
            <tspan x="87.111" y="75">C”</tspan>
        </text>
        <g transform="translate(51 60)">
            <use fill="#D8D8D8" xlink:href="#g"/>
            <path stroke="#979797" d="M.5.5h1v8h-1z"/>
        </g>
        <g transform="translate(51 60)">
            <use fill="#D8D8D8" xlink:href="#h"/>
            <path stroke="#979797" d="M79.496 4.502v.5h.5v-.5h-.5zm-3.16 1.815l-.434.25.683.183-.25-.433zm-.002-.002l-.25-.433-.183.683.433-.25zM4.673 6.313l.433.25-.183-.683-.25.433zm-.002.003l-.25.433.683-.183-.433-.25zM1.504 4.502h-.5v.5h.5v-.5zm0-.002V4h-.5v.5h.5zM4.67 2.683l.433-.25-.683-.183.25.433zm.001.002l.25.433.183-.683-.433.25zm71.662.003l-.433-.25.183.683.25-.433zm.001-.003l.25-.433-.683.183.433.25zM79.496 4.5h.5V4h-.5v.5z"/>
        </g>
        <g transform="translate(51 60)">
            <use fill="#D8D8D8" xlink:href="#i"/>
            <path stroke="#979797" d="M79.5.5h1v8h-1z"/>
        </g>
        <g transform="rotate(90 14 48)">
            <use fill="#D8D8D8" xlink:href="#j"/>
            <path stroke="#979797" d="M1.268.5h1v8h-1z"/>
        </g>
        <g transform="rotate(90 14 48)">
            <use fill="#D8D8D8" xlink:href="#k"/>
            <path stroke="#979797" d="M21.763 4.463h.005v-.5h-.5v1h.496l.004-.002v-.003l-.249-.431h-.001l-.25.434v.131l.068.118.428-.247h.004V4.96l.001-.001-.001-.002v-.495h-.005zm0 0h-.133l-.866.5.866-.5h-.001.134zm-1 .5l-1.697.98 1.698-.98zm-1.697.98l-.949.548.683.183-.5-.866-.183.683.949-.548zm2.563-1.48h-.933.931l-.866-.5.866.5h.002zm-18.785 0h-.929l.866.5-.866-.5h-.004.933zm1.634 1.48l.947.546-.183-.683-.5.866.683-.183-.947-.546zm-2.567-1.48h-.14.136l.866-.5-.866.5h.004zm-.14 0h-.003v.5h.5v-1h-.5v.5h.002zM4.472 2.98l.95-.548-.683-.183.5.866.183-.683-.95.548zm16.288.982l-2.646-1.528.183.683.5-.866-.683.183 2.646 1.528z"/>
        </g>
        <g transform="rotate(90 14 48)">
            <use fill="#D8D8D8" xlink:href="#l"/>
            <path stroke="#979797" d="M22.268.5h1v8h-1z"/>
        </g>
        <text fill="#FFF" font-family="Roboto-Black, Roboto" font-size="9" font-weight="700" transform="translate(-1)">
            <tspan x="62.155" y="49">D”</tspan>
        </text>
        <text fill="#FFF" font-family="Roboto-Regular, Roboto" font-size="7" transform="translate(-1)">
            <tspan x="87.637" y="48">Bar Top</tspan>
        </text>
        <text fill="#333" font-family="Roboto-Black, Roboto" font-size="9" font-weight="700" transform="translate(-1)">
            <tspan x="156.103" y="8">F”</tspan>
        </text>
        <text fill="#333" font-family="Roboto-Black, Roboto" font-size="9" font-weight="700" transform="translate(-1)">
            <tspan x="3.662" y="92">B”</tspan>
        </text>
        <g>
            <g transform="scale(-1 1) rotate(-37 -61.01 254.065)">
                <use fill="#D8D8D8" xlink:href="#m"/>
                <path stroke="#979797" d="M1.1 4.765v4.5l.5-.5h-1l.5.5v-4.5zm0 0v-4.5l-.5.5h1l-.5-.5v4.5z"/>
            </g>
            <g transform="scale(-1 1) rotate(-37 -61.01 254.065)">
                <use fill="#D8D8D8" xlink:href="#n"/>
                <path stroke="#979797" d="M22.345 4.563l-.135.001-.059-.034.059.034-.361.003.36-.003-.879.507.879-.507h.136zm-.194-.033l-.795-.459.795.46zM2.1 4.724l-.359.003.057-.033-.057.033h-.137.142l.854.493-.854-.493.354-.003zm-.302-.03l.821-.474-.82.474zm.802.526l1.697.98L2.6 5.22z"/>
            </g>
            <g transform="scale(-1 1) rotate(-37 -61.01 254.065)">
                <use fill="#D8D8D8" xlink:href="#o"/>
                <path stroke="#979797" d="M22.849 4.6v4.5l.5-.5h-1l.5.5V4.6zm0 0V.1l-.5.5h1l-.5-.5v4.5z"/>
            </g>
        </g>
        <g>
            <g transform="scale(1 -1) rotate(-45 -92.307 -38.55)">
                <use fill="#D8D8D8" xlink:href="#p"/>
                <path stroke="#979797" d="M1.1 4.765v4.5l.5-.5h-1l.5.5v-4.5zm0 0v-4.5l-.5.5h1l-.5-.5v4.5z"/>
            </g>
            <g transform="scale(1 -1) rotate(-45 -92.307 -38.55)">
                <use fill="#D8D8D8" xlink:href="#q"/>
                <path stroke="#979797" d="M22.345 4.563l-.135.001-.059-.034.059.034-.361.003.36-.003-.879.507.879-.507h.136zm-.194-.033l-.795-.459.795.46zM2.1 4.724l-.359.003.057-.033-.057.033h-.137.142l.854.493-.854-.493.354-.003zm-.302-.03l.821-.474-.82.474zm.802.526l1.697.98L2.6 5.22z"/>
            </g>
            <g transform="scale(1 -1) rotate(-45 -92.307 -38.55)">
                <use fill="#D8D8D8" xlink:href="#r"/>
                <path stroke="#979797" d="M22.849 4.6v4.5l.5-.5h-1l.5.5V4.6zm0 0V.1l-.5.5h1l-.5-.5v4.5z"/>
            </g>
        </g>
    </g>
</svg>
