<svg xmlns="http://www.w3.org/2000/svg" xmlns:xlink="http://www.w3.org/1999/xlink" width="159" height="96" viewBox="0 0 159 96">
    <defs>
        <path id="a" d="M0 0h1v9H0z"/>
        <path id="b" d="M31.994 3.963H32v.995l.001.002H32v.003h-.004l-3.397 1.96-.5-.865 1.897-1.095H3.013l1.894 1.093-.5.866-3.394-1.96H1v-1h.005L4.405 2l.5.866-1.9 1.097h26.989l-1.897-1.095.5-.866 3.397 1.96z"/>
        <path id="c" d="M32 0h1v9h-1z"/>
        <path id="d" d="M0 0h1v9H0z"/>
        <path id="e" d="M83 3.963v.995l.001.002H83v.003l-3.4 1.96-.5-.865 1.896-1.095H3.013l1.894 1.093-.5.866-3.394-1.96H1v-1L4.405 2l.5.866-1.9 1.097h77.989l-1.897-1.095.5-.866 3.397 1.96z"/>
        <path id="f" d="M83 0h1v9h-1z"/>
        <path id="g" d="M.272 0h1v9h-1z"/>
        <path id="h" d="M63.342 4.063h.007v1l-3.401 1.961-.5-.866L61.35 5.06 3.291 4.966l1.888 1.09-.5.866-3.394-1.96h-.013v-1L4.677 2l.5.866-1.906 1.1 58.065.094-1.89-1.092.5-.866 3.396 1.961z"/>
        <path id="i" d="M63.349.1h1v9h-1z"/>
        <path id="j" d="M0 0h1v9H0z"/>
        <path id="k" d="M32.063 4.205h.006V5.2l.001.002v.003h-.005L28.67 7.166l-.5-.866 1.923-1.11-27.051-.211 1.866 1.077-.5.866-3.393-1.959H1v-1h.005L4.405 2l.5.866-1.927 1.112 27.057.211-1.868-1.079.5-.866 3.396 1.961z"/>
        <path id="l" d="M32.07.242h1v9h-1z"/>
    </defs>
    <g fill="none" fill-rule="evenodd">
        <path fill="#620A08" d="M106.681 19.793l40.016 40.211a4 4 0 0 1-.007 5.65l-17.677 17.678a4 4 0 0 1-5.664-.007L91.181 51H24.345a4 4 0 0 1-4-4V22a4 4 0 0 1 4-4h79c1.393 0 2.62.712 3.336 1.793z"/>
        <text fill="#333" font-family="Roboto-Black, Roboto" font-size="9" font-weight="700" transform="translate(0 -1)">
            <tspan x=".499" y="39">A”</tspan>
        </text>
        <g transform="rotate(90 0 18)">
            <use fill="#D8D8D8" xlink:href="#a"/>
            <path stroke="#979797" d="M.5.5h1v8h-1z"/>
        </g>
        <g transform="rotate(90 0 18)">
            <use fill="#D8D8D8" xlink:href="#b"/>
            <path stroke="#979797" d="M31.995 4.463H32v-.5h-.5v1h.496L32 4.96v-.003l-.249-.431h-.001l-.25.434v.131l.068.118.428-.247H32V4.96l.001-.001L32 4.958v-.495h-.005zm0 0h-.133l-.866.5.866-.5h-.001.134zm-1 .5l-1.697.98 1.698-.98zm-1.697.98l-.949.548.683.183-.5-.866-.183.683.949-.548zm2.563-1.48h-.933.932l-.866-.5.866.5zm-29.785 0h-.929l.866.5-.866-.5h-.004.933zm1.634 1.48l.947.546-.183-.683-.5.866.683-.183-.947-.546zm-2.567-1.48h-.14.136l.866-.5-.866.5h.004zm-.14 0H1v.5h.5v-1H1v.5h.002zM3.704 2.98l.95-.548-.683-.183.5.866.183-.683-.95.548zm27.289.982l-2.647-1.528.183.683.5-.866-.683.183 2.647 1.528z"/>
        </g>
        <g transform="rotate(90 0 18)">
            <use fill="#D8D8D8" xlink:href="#c"/>
            <path stroke="#979797" d="M32.5.5h1v8h-1z"/>
        </g>
        <g transform="rotate(45 8.024 166.474)">
            <ellipse cx="14.5" cy="9.5" fill="#D8D8D8" rx="14.5" ry="9.5"/>
            <text fill="#333" font-family="Roboto-Regular, Roboto" font-size="7">
                <tspan x="7.738" y="12">Sink</tspan>
            </text>
        </g>
        <text fill="#333" font-family="Roboto-Black, Roboto" font-size="9" font-weight="700" transform="translate(0 -1)">
            <tspan x="69.162" y="8">B”</tspan>
        </text>
        <text fill="#333" font-family="Roboto-Black, Roboto" font-size="9" font-weight="700" transform="translate(0 -1)">
            <tspan x="145.655" y="90">D”</tspan>
        </text>
        <text fill="#333" font-family="Roboto-Black, Roboto" font-size="9" font-weight="700" transform="translate(0 -1)">
            <tspan x="136.111" y="33">C”</tspan>
        </text>
        <g transform="translate(20 6)">
            <use fill="#D8D8D8" xlink:href="#d"/>
            <path stroke="#979797" d="M.5.5h1v8h-1z"/>
        </g>
        <g transform="translate(20 6)">
            <use fill="#D8D8D8" xlink:href="#e"/>
            <path stroke="#979797" d="M82.5 4.674v.289h.496l.003-.002-.249-.431-.002.001-.248.43v.131l.068.118.428-.247H83l-.001-.002.002-.001-.25-.433h-.001l-.002.004-.248.143zm-2.717 1.567l-.433.25.682.183-.25-.433zm0 0l-.25-.433-.184.683.433-.25zM82.5 4.67l.362-.208h-.001H83v-.5h-.5v.709zm.36-.208h-.932.932l-.866-.5.866.5zM3.71 5.943l.947.546-.183-.683-.5.866.683-.183-.947-.546zM1.14 4.463H1v.5h.5v-.709l-.361.209zm.361-.211v-.29l-.25.434.25-.144zm2.722-1.57l.433-.249-.683-.183.25.433zm0 .001l.25.433.183-.683-.433.25zm77.772 1.28l-2.647-1.528.183.683.5-.866-.683.183 2.647 1.528z"/>
        </g>
        <g transform="translate(20 6)">
            <use fill="#D8D8D8" xlink:href="#f"/>
            <path stroke="#979797" d="M83.5.5h1v8h-1z"/>
        </g>
        <g>
            <g transform="scale(-1 1) rotate(-45 -14.379 218.95)">
                <use fill="#D8D8D8" xlink:href="#g"/>
                <path stroke="#979797" d="M.772 4.5V9l.5-.5h-1l.5.5V4.5zm0 0V0l-.5.5h1l-.5-.5v4.5z"/>
            </g>
            <g transform="scale(-1 1) rotate(-45 -14.379 218.95)">
                <use fill="#D8D8D8" xlink:href="#h"/>
                <path stroke="#979797" d="M62.849 4.562h.359l-.058-.032.058.033h.14v-.5h-.5v.5l-61.076-.1v-.209l-.361.21h.361-.352l.868.5-.868-.5-.147-.001v.5h.5v-.5l61.076.1v.21l.362-.21h-.362zm0 .212v.29h.495l.004-.003-.25-.431-.002.001-.247.43v.131l.068.118.427-.247h.005l-.001-.002h.002l-.25-.434h-.001l-.003.004-.247.143zM60.13 6.341l-.433.25.683.183-.25-.433zm0 0l-.25-.433-.183.683.433-.25zM3.985 5.944l.944.545-.183-.683-.5.866.683-.183-.944-.545zM1.772 4.252v-.29l-.25.434.25-.144zm2.722-1.57l.433-.249-.683-.183.25.433zm0 .001l.25.433.183-.683-.433.25zM63.15 4.53L60.64 3.08 63.15 4.53zM60.64 3.08l-.945-.546.183.683.5-.866-.683.183.945.546z"/>
            </g>
            <g transform="scale(-1 1) rotate(-45 -14.379 218.95)">
                <use fill="#D8D8D8" xlink:href="#i"/>
                <path stroke="#979797" d="M63.849 4.6v4.5l.5-.5h-1l.5.5V4.6zm0 0V.1l-.5.5h1l-.5-.5v4.5z"/>
            </g>
        </g>
        <g>
            <g transform="rotate(135 64.494 68.933)">
                <use fill="#D8D8D8" xlink:href="#j"/>
                <path stroke="#979797" d="M.5.5h1v8h-1z"/>
            </g>
            <g transform="rotate(135 64.494 68.933)">
                <use fill="#D8D8D8" xlink:href="#k"/>
                <path stroke="#979797" d="M31.87 4.671l-.82-.474.82.474zm0 0l.057.033-.358-.003.364.003-.854.493.854-.493.132.001h-.138l-.057-.034zM1.5 4.467l-.363-.003.059-.034-.059.034-.133-.001.145.001.878.507-.878-.507.351.003zm-.304-.037l.796-.46-.796.46zm.796-.46l1.7-.98-1.7.98zm.035 1l1.697.98-1.697-.98z"/>
            </g>
            <g transform="rotate(135 64.494 68.933)">
                <use fill="#D8D8D8" xlink:href="#l"/>
                <path stroke="#979797" d="M32.57 4.742v4.5l.5-.5h-1l.5.5v-4.5zm0 0v-4.5l-.5.5h1l-.5-.5v4.5z"/>
            </g>
        </g>
    </g>
</svg>
